<?xml version="1.0" standalone="no"?>
<!DOCTYPE svg PUBLIC "-//W3C//DTD SVG 20010904//EN" "http://www.w3.org/TR/2001/REC-SVG-20010904/DTD/svg10.dtd">
<!-- Created using Krita: https://krita.org -->
<svg xmlns="http://www.w3.org/2000/svg" 
    xmlns:xlink="http://www.w3.org/1999/xlink"
    xmlns:krita="http://krita.org/namespaces/svg/krita"
    xmlns:sodipodi="http://sodipodi.sourceforge.net/DTD/sodipodi-0.dtd"
    width="144pt"
    height="144pt"
    viewBox="0 0 144 144">
<defs>
  <mask id="clipmask0" maskUnits="userSpaceOnUse" maskContentUnits="userSpaceOnUse" x="-25" y="3.5527136788005e-15" width="452" height="452">
      <defs/>
   <g id="clipmask0" transform="translate(1.77635683940025e-15, 3.5527136788005e-15)" fill="none">
     <g id="mask0_0_25" fill="none">
      <path id="shape0" transform="translate(-25, 4.02692e-05)" fill="#ffffff" fill-rule="evenodd" stroke-opacity="0" stroke="#000000" stroke-width="0" stroke-linecap="square" stroke-linejoin="bevel" d="M451.112 201.827L249.235 451.124L0 249.297L201.877 0Z" sodipodi:nodetypes="ccccc"/>
     </g>
    </g>
  </mask>
 </defs>
<path id="shape0" transform="matrix(0.446249702937074 -0.00169809901174614 0.00170991145873871 0.450592831660172 35.9148872040474 36.4801673087378)" fill="#000000" fill-rule="evenodd" stroke-opacity="0" stroke="#000000" stroke-width="0" stroke-linecap="square" stroke-linejoin="bevel" d="M133.334 130.476C134.993 128.895 137.113 127.785 138.399 125.78C138.62 125.436 139.187 124.971 138.477 124.618C137.227 123.999 136.062 124.664 135.956 126.081C135.871 127.212 135.567 128.129 134.553 128.771C133.968 129.141 133.574 129.737 133.334 130.476M25.3925 36.9339C22.4385 39.7049 20.5295 43.1339 19.0585 46.8409C20.6085 45.2139 21.0775 42.8599 22.9065 41.4209C24.3465 40.2879 24.7585 38.5459 25.3925 36.9339M56.3485 13.9509C53.9835 13.2429 46.4215 17.0819 45.9335 19.1049C49.2805 17.1749 52.5905 15.3979 56.3485 13.9509M23.6055 34.2919C24.0825 33.4269 24.6835 32.6309 25.4935 32.1689C26.6835 31.4909 27.3725 30.3479 28.3605 29.4999C29.2435 28.7419 29.3615 27.4849 30.2805 26.7659C30.6635 26.4659 31.4045 26.1219 30.7755 25.5689C30.2345 25.0929 29.6305 25.5599 29.3235 26.0959C28.6245 27.3169 27.4695 28.1959 26.7685 29.3649C25.7605 31.0479 24.2125 32.3669 23.6055 34.2919M95.3655 147.457C92.8345 147.205 90.4915 148.283 88.0315 147.952C87.8975 147.934 87.7235 148.047 87.6005 148.142C87.1815 148.461 86.9565 148.931 87.1355 149.404C87.3205 149.89 87.7745 149.562 88.1215 149.531C88.9705 149.456 89.8325 149.274 90.6675 149.354C92.5885 149.537 93.9125 148.367 95.3655 147.457M18.7115 104.153C19.0045 104.366 19.2765 104.754 19.6825 104.549C20.1905 104.293 19.9455 103.8 19.8865 103.402C19.8405 103.088 19.7395 102.777 19.6235 102.48C18.9625 100.775 17.7315 99.2839 17.8175 97.2929C17.8355 96.8519 17.5945 96.0799 16.8845 96.2509C16.2475 96.4049 16.2245 97.1099 16.4295 97.6039C17.1745 99.3929 17.4855 101.291 17.9405 103.153C18.0495 103.601 18.4005 103.86 18.7115 104.153M148.083 50.7479C148.426 50.3209 148.339 49.8379 148.146 49.5099C146.71 47.0589 146.072 44.1489 143.916 42.1109C143.277 41.5079 142.748 40.7789 142.803 39.8929C142.865 38.8949 142.235 38.3369 141.727 37.6739C141.5 37.3789 141.238 37.0239 140.814 37.2239C140.32 37.4559 140.594 37.8789 140.716 38.1979C141.538 40.3439 142.998 42.1159 144.319 43.9349C145.529 45.6019 146.456 47.3419 146.989 49.2999C147.17 49.9649 147.503 50.4149 148.083 50.7479M139.263 35.9559C139.06 34.0929 131.494 25.5889 129.807 25.4279C133.142 28.6819 135.321 32.9639 139.263 35.9559M34.9895 131.848C34.9215 132.532 35.3645 132.865 35.7105 133.252C38.0285 135.844 41.1275 137.461 43.7425 139.682C44.1385 140.019 44.6865 140.499 45.1245 139.962C45.5605 139.428 44.8595 139.038 44.5815 138.63C44.4395 138.421 44.1885 138.28 43.9725 138.129C41.0055 136.051 38.0365 133.978 34.9895 131.848M116.457 139.503C118.49 139.665 119.712 138.709 120.443 137.043C120.76 136.319 121.434 136.277 122.039 136.157C124.479 135.673 125.327 133.434 126.819 131.818C125.578 132.68 124.029 132.74 122.852 133.669C121.129 135.029 119.986 137.089 117.714 137.807C117.019 138.026 116.428 138.58 116.457 139.503M114.852 140.59C114.151 140.159 113.625 140.463 113.07 140.62C111.551 141.047 110.382 142.124 108.981 142.769C105.402 144.415 101.655 145.526 97.8085 146.335C97.7045 146.357 97.5975 146.369 97.4955 146.395C97.2305 146.465 96.9565 146.568 96.9355 146.876C96.9115 147.226 97.2335 147.263 97.4805 147.348C98.5105 147.701 99.5345 147.509 100.432 147.045C103.099 145.664 106.103 145.273 108.827 144.107C110.945 143.201 113.116 142.315 114.852 140.59M33.6535 23.5289C34.3755 23.3939 34.8885 23.2849 35.4075 23.2049C35.9415 23.1219 36.6285 22.5049 36.9705 23.2169C37.2415 23.7819 36.3905 23.8149 36.0525 24.0979C35.7415 24.3589 35.4815 24.6819 35.7055 25.0539C35.9855 25.5199 36.3725 25.2279 36.6525 24.9999C38.3975 23.5789 40.2855 22.4129 42.3935 21.5989C42.8635 21.4179 43.3025 21.0819 43.2645 20.3729C42.0315 20.5149 41.0785 21.1259 40.0475 21.5219C39.3895 21.7749 38.7495 21.6339 38.3615 20.9999C38.0775 20.5349 37.8985 19.9739 38.4535 19.5649C39.1745 19.0339 39.8845 18.4349 40.6945 18.0929C42.5855 17.2949 44.2705 16.1069 45.8365 14.8939C48.1515 13.0989 50.6655 12.0609 53.4675 11.5209C54.3735 11.3469 54.9165 10.8259 55.1645 9.92688C54.0825 9.54588 53.3935 10.0959 52.6765 10.5549C51.9105 11.0449 51.0625 11.3799 50.3395 10.6259C49.4195 9.66788 48.5935 9.89688 47.6455 10.5149C46.7535 11.0959 45.8165 11.6089 44.8885 12.1319C44.0865 12.5839 43.1985 12.9369 43.8115 14.1749C43.9735 14.5019 43.6825 14.9019 43.3125 15.0839C42.4735 15.4959 41.9435 16.2619 41.2485 16.8339C40.0105 17.8539 38.4795 18.3929 37.0795 19.1459C36.7435 19.3259 36.2985 19.2809 36.0995 18.8769C35.8675 18.4069 36.2715 18.2259 36.5975 18.0389C37.1035 17.7479 37.5935 17.4449 37.6085 16.6199C35.3935 16.6929 34.7905 18.9129 33.1465 19.6209C35.2975 19.5989 35.2985 19.6059 33.6535 23.5289M11.5285 82.9239C10.7895 84.6589 10.2215 86.3939 11.1235 88.2359C11.3905 88.7809 11.6265 89.3739 11.4815 89.9309C10.7795 92.6249 12.2025 95.0039 12.6015 97.5249C12.9125 99.4839 14.0395 101.253 14.5285 103.211C14.8235 104.392 14.7875 105.657 15.4835 106.745C16.5665 108.438 17.2625 110.325 18.0965 112.144C19.0475 114.22 19.9715 116.433 21.6755 117.93C23.6335 119.65 24.8525 121.767 26.0935 123.942C26.6005 124.83 27.2485 125.614 28.2695 125.974C28.5745 126.081 28.9355 126.219 29.1565 125.928C29.3995 125.606 29.0745 125.307 28.8865 125.093C28.1485 124.251 27.2685 123.518 26.6235 122.614C23.1725 117.783 19.2465 113.214 17.8785 107.196C17.7995 106.847 17.5325 106.537 17.3375 106.22C16.1635 104.305 15.0055 102.402 15.1015 100.009C15.1285 99.3379 14.9065 98.6339 14.6955 97.9779C13.9265 95.5989 12.8545 93.3589 12.5575 90.7759C12.4125 89.5219 12.8145 88.2569 12.3875 87.0869C11.8955 85.7369 11.5075 84.3919 11.5285 82.9239M104.496 13.3279C105.214 14.3349 106.43 13.8969 107.26 14.4409C108.863 15.4919 110.522 16.4609 112.184 17.4189C116.142 19.7019 120.184 21.8359 123.583 24.9819C125.932 27.1569 128.573 29.0779 130.489 31.6349C132.055 33.7249 133.927 35.5289 135.49 37.6229C137.841 40.7719 140.551 43.6359 141.965 47.4149C142.715 49.4209 144.567 50.9089 144.761 53.2209C144.799 53.6659 145.29 54.1449 145.822 53.9929C146.513 53.7959 146.083 53.2319 146.064 52.7849C146.011 51.4759 145.291 50.3199 144.719 49.3299C142.599 45.6629 140.56 41.9189 137.852 38.6199C136.507 36.9819 135.998 34.7549 134.122 33.4719C133.575 33.0979 133.221 32.4309 132.8 31.8809C131.863 30.6589 130.907 29.3419 129.794 28.3979C126.717 25.7889 123.346 23.5279 120.102 21.1129C118.276 19.7529 116.124 18.7849 114.415 17.4079C111.934 15.4079 109.082 14.6139 106.278 13.5419C105.778 13.3499 105.22 13.0089 104.496 13.3279M54.1035 140.166C54.1305 139.927 53.8645 139.629 53.4585 139.426C51.2315 138.313 49.1005 136.994 46.9645 135.75C42.5525 133.18 38.5575 129.935 35.1345 126.091C33.9295 124.737 32.3135 123.767 31.4005 122.163C30.2115 120.071 28.6275 118.265 27.2715 116.295C26.8065 115.619 26.0935 115.216 25.4065 114.803C25.0045 114.562 24.5745 114.552 24.1995 114.834C23.7085 115.202 24.0555 115.605 24.2265 115.972C24.6115 116.801 25.0585 117.604 25.8115 118.157C28.0485 119.803 29.3405 122.273 31.1445 124.297C32.0115 125.269 32.6545 126.573 31.2515 127.794C30.9045 128.097 30.7755 128.589 31.1305 128.945C31.9285 129.743 32.6405 130.689 33.9555 131.086C33.5055 129.841 33.1215 128.779 32.6435 127.456C35.5035 128.327 37.0385 130.571 39.0975 132.057C40.8605 133.331 42.2535 135.402 44.1805 136.099C47.5865 137.332 49.8995 141.039 54.1035 140.166M15.5025 40.0669C15.9135 40.3629 16.0995 40.2439 16.2805 40.1399C16.7545 39.8679 17.2695 39.5519 17.7535 39.9969C18.2695 40.4699 18.0735 41.0909 17.8445 41.6429C17.6195 42.1849 17.3565 42.7129 17.0715 43.2259C15.6685 45.7469 13.7365 48.0259 13.5855 51.1109C13.5655 51.5089 13.3585 51.9799 13.0835 52.2709C11.2325 54.2319 10.9145 56.8579 10.2005 59.2449C8.38853 65.3029 7.17453 71.5019 7.01253 77.8559C6.98953 78.7799 6.94153 80.3949 7.72053 80.3929C8.73253 80.3909 8.68053 78.9039 8.77853 77.9069C9.05653 75.0849 8.95553 72.2189 9.79553 69.4609C9.92353 69.0419 9.89353 68.5289 10.4905 68.6149C10.9615 68.6819 10.8955 69.1079 10.9125 69.5039C10.9855 71.1619 11.4645 72.7939 10.9705 74.5069C11.6945 74.4329 11.8595 74.0459 11.8735 73.6989C11.9695 71.3129 12.2655 68.9739 13.0415 66.6929C13.2575 66.0559 13.7435 64.9789 12.9805 64.6539C12.2905 64.3589 12.1575 65.5449 11.7255 66.0299C11.5135 66.2689 11.3485 66.5989 10.9975 66.5989C10.6905 66.5989 10.5605 66.3169 10.5165 66.0429C10.2635 64.4769 9.85253 62.9689 10.6055 61.3479C11.8595 58.6509 13.0835 55.9149 13.9805 53.0869C14.9425 50.0519 15.5675 46.9259 18.1705 44.7329C18.4835 44.4699 18.8475 44.0379 18.8535 43.6779C18.8805 41.9739 19.8905 40.7049 20.5835 39.2819C21.0595 38.3029 21.7115 37.4729 22.3315 36.6049C22.5755 36.2639 22.9045 35.8399 22.5435 35.4519C22.1085 34.9849 21.6575 35.4019 21.2535 35.6239C21.0705 35.7239 20.9335 35.9049 20.7725 36.0449C20.5465 36.2399 20.3645 36.6599 20.0065 36.4329C19.5845 36.1659 19.8625 35.7579 19.9825 35.4269C20.5105 33.9599 21.0995 32.5419 22.4225 31.5569C23.1965 30.9799 23.5125 30.0939 23.6565 29.1189C20.6475 32.5659 17.4025 35.8269 15.5025 40.0669M86.2325 9.28388C80.8945 7.51388 63.1375 9.52088 60.8925 12.1019C61.4885 12.4449 62.1335 12.3539 62.7615 12.3479C63.4665 12.3409 64.3215 12.2649 64.5035 13.1049C64.7175 14.0959 63.7615 14.1989 63.0955 14.5169C61.0615 15.4879 58.7045 15.5689 56.7665 16.7239C54.7035 17.9539 52.4875 18.8689 50.3785 20.0059C45.7985 22.4759 41.4065 25.2419 37.6175 28.7459C34.3095 31.8059 30.9155 34.8079 27.9955 38.3099C25.8335 40.9039 23.9585 43.6739 22.4185 46.6039C20.8735 49.5429 19.3375 52.5479 18.4775 55.8169C17.9355 57.8749 17.1095 59.8389 16.2965 61.8049C16.1465 62.1659 15.9755 62.7059 16.5425 62.9069C16.9905 63.0649 17.4085 62.8739 17.5305 62.3629C18.2105 59.5119 19.2665 56.8019 20.3735 54.0889C21.5465 51.2169 22.5805 48.3239 24.8925 46.1169C25.4395 45.5939 26.0245 44.9489 25.9995 44.2129C25.9115 41.6239 28.0015 40.0439 29.4725 39.0019C32.7045 36.7109 35.0495 33.5629 38.1355 31.1989C38.8385 30.6609 39.4155 29.2129 40.3985 30.1079C41.2455 30.8799 40.0605 31.7879 39.6295 32.5949C38.2975 35.0879 35.6215 36.3259 34.1235 38.7579C31.7355 42.6369 27.8855 45.4969 26.1195 49.8569C26.0995 49.9049 26.0565 49.9439 26.0225 49.9839C24.2005 52.1559 23.5015 54.8939 22.5775 57.4479C21.5195 60.3699 20.7045 63.4099 19.8615 66.4199C18.8825 69.9159 17.7665 73.3259 17.7105 76.9919C17.6615 80.2219 17.1485 83.4689 18.1315 86.6549C18.2985 87.1929 18.1785 87.9809 18.9755 88.0019C19.7525 88.0229 19.7545 87.2249 19.9335 86.7039C20.2235 85.8589 20.0605 85.0139 19.7705 84.1919C19.6285 83.7909 19.4045 83.4019 19.3525 82.9909C19.2525 82.2039 19.4015 81.4329 20.2775 81.1699C21.1565 80.9049 21.6365 81.4249 22.0095 82.1899C22.9305 84.0839 23.2295 86.1629 22.9265 88.1299C22.6755 89.7559 22.8945 91.1699 23.2935 92.6679C23.9095 94.9829 24.5775 97.2789 25.3865 99.5349C25.6295 100.211 25.6795 100.969 24.9555 101.394C24.3675 101.74 23.8595 101.242 23.6095 100.827C22.4945 98.9799 20.9715 97.2969 21.1945 94.8799C21.2925 93.8139 21.1075 92.7459 20.7695 91.7179C20.5655 91.0949 20.3675 90.3649 19.5235 90.5559C18.6575 90.7529 18.5205 91.5549 18.7575 92.2349C20.0535 95.9529 20.4875 99.9539 22.4895 103.446C23.0345 104.397 23.7595 105.202 24.1135 106.338C24.7735 108.45 25.6855 110.476 27.0965 112.289C28.2055 113.715 29.5865 114.998 30.4665 116.493C32.5735 120.073 36.0095 122.509 38.1635 126.003C38.3505 126.306 38.6975 126.525 38.9985 126.743C41.3715 128.461 43.8105 130.096 46.1065 131.911C47.3705 132.91 48.8585 133.551 50.0645 134.588C52.6535 136.815 55.8605 137.842 59.0115 138.546C60.5195 138.883 61.9445 139.204 63.2475 139.958C64.2475 140.536 65.3205 140.764 66.3985 141.072C69.1005 141.842 71.9425 141.098 74.6415 141.917C75.4975 142.176 76.4695 142.402 77.3215 142.256C81.2475 141.583 85.2655 142.26 89.1935 141.174C91.4315 140.555 93.9595 141.331 96.2115 140.22C96.6825 139.987 97.2265 139.889 97.7485 139.779C98.1565 139.693 98.4805 139.888 98.6745 140.257C98.8755 140.641 98.7925 141.016 98.4785 141.273C98.1115 141.573 97.7175 141.942 97.2815 142.04C95.0765 142.532 92.8035 142.54 90.5845 143.079C88.5815 143.565 86.4315 143.466 84.4395 143.981C82.6125 144.455 80.6915 144.729 78.9365 144.696C75.4425 144.629 71.8515 144.739 68.4505 143.639C66.7995 143.105 65.0885 143.06 63.4365 142.694C61.5305 142.27 59.6985 141.485 57.8605 140.788C56.9055 140.426 56.0725 140.431 55.2265 141.022C55.5765 141.664 56.1825 141.632 56.6335 141.881C58.6345 142.986 60.8995 143.19 63.0485 143.766C64.4415 144.139 65.7275 144.792 67.1695 145.043C72.1705 145.913 77.2065 146.104 82.2645 146.058C82.8425 146.053 83.4825 146.364 83.9925 146.204C86.8875 145.295 89.9295 145.176 92.8725 144.481C95.4385 143.876 98.1305 143.828 100.663 142.89C105.522 141.09 110.314 139.107 114.851 136.636C118.059 134.889 122.005 134.042 123.855 130.302C123.957 130.096 124.353 130.05 124.498 129.848C125.354 128.661 127.138 128.728 127.866 127.582C129.25 125.404 130.418 123.097 132.516 121.469C132.715 121.314 132.845 121.042 132.952 120.801C133.877 118.719 136.023 117.554 136.94 115.446C137.225 114.789 137.938 114.577 138.563 115.086C139.309 115.695 138.815 116.226 138.3 116.661C137.278 117.523 136.683 118.626 136.327 119.893C136.228 120.244 136.105 120.699 135.84 120.876C133.731 122.286 133.183 124.491 132.679 126.917C133.794 125.995 134.323 124.605 135.727 124.23C135.866 124.192 135.997 123.898 136.026 123.708C136.4 121.252 137.953 119.338 139.422 117.593C140.595 116.201 141.614 114.816 142.385 113.2C143.578 110.699 145.35 108.52 146.304 105.874C147.071 103.745 148.917 102.188 149.099 99.6399C149.272 97.2439 150.233 94.8819 150.915 92.5669C151.456 90.7309 151.359 88.8109 152.108 87.0209C152.623 85.7889 152.677 84.2989 151.285 83.2129C150.838 83.6769 150.858 84.2339 150.73 84.7289C150.273 86.4849 150.281 88.3049 149.857 90.1039C149.265 92.6129 148.299 95.0919 148.095 97.6739C147.903 100.093 146.434 101.978 145.824 104.182C145.237 106.3 143.447 107.846 143.203 110.061C143.079 111.184 142.335 111.874 141.698 112.636C141.137 113.307 140.29 113.567 139.528 113.114C138.667 112.601 139.065 111.76 139.414 111.118C139.921 110.186 140.747 109.391 141.096 108.415C142.013 105.851 143.525 103.578 144.515 101.063C144.908 100.065 146.049 99.2369 145.854 98.2229C145.438 96.0579 146.812 94.4019 147.121 92.4559C147.531 89.8649 148.92 87.4199 147.897 84.6489C147.663 84.0159 147.472 83.1609 147.82 82.4479C148.465 81.1299 148.301 79.7449 148.31 78.3619C148.324 76.3429 148.355 74.3239 148.438 72.3069C148.459 71.8039 148.525 71.3089 148.148 70.9569C146.691 69.5939 147.09 67.5639 146.325 65.9399C145.941 65.1259 146.764 64.4789 147.371 63.9499C147.633 63.7209 148.079 63.6589 148.211 63.9899C148.695 65.2069 150.05 66.1499 149.709 67.6039C148.7 71.9029 151.509 75.8159 150.884 80.0639C150.842 80.3469 151.022 80.7739 151.391 80.7729C151.923 80.7719 151.851 80.2659 151.893 79.9199C152.205 77.2989 152.741 74.7649 152.089 72.0139C151.75 70.5839 151.943 69.0159 151.014 67.6769C150.309 66.6589 150.606 65.2099 149.732 64.2949C149.13 63.6649 148.098 63.3469 149.607 62.5419C150.134 62.2609 149.878 61.4589 149.661 60.9099C149.348 60.1169 149.015 59.3269 148.633 58.5659C148.369 58.0409 148.214 57.0859 147.381 57.4969C146.622 57.8709 147.033 58.7079 147.399 59.1759C148.124 60.1059 148.133 61.1739 148.166 62.2239C148.195 63.1199 147.461 63.4849 146.707 63.6889C146.231 63.8169 145.989 63.4629 145.957 63.0659C145.76 60.6189 144.678 58.4589 143.749 56.2549C142.678 53.7149 141.484 51.2369 140.105 48.8379C139.461 47.7159 138.099 47.0819 137.868 45.8189C137.495 43.7759 136.381 42.0559 135.14 40.6589C133.2 38.4759 131.132 36.3989 129.304 34.1059C129.092 33.8409 128.829 33.4829 128.399 33.7489C127.953 35.2079 128.885 36.2589 129.729 37.7099C127.414 36.9469 125.686 35.9589 124.41 34.3649C123.973 33.8199 123.365 32.9339 124.106 32.1849C124.823 31.4599 125.469 32.2279 126.112 32.5279C126.257 32.5949 126.391 32.6969 126.542 32.7409C126.933 32.8579 127.396 33.2759 127.719 32.8699C128.094 32.4009 127.663 31.9789 127.319 31.6359C127.055 31.3719 126.786 31.1049 126.483 30.8869C122.901 28.3029 119.338 25.6909 115.707 23.1769C114.788 22.5409 113.871 21.8989 112.95 21.2649C111.763 20.4469 110.826 19.3099 109.505 18.6719C106.469 17.2049 103.351 15.9759 100.053 15.2189C99.0685 14.9919 98.0785 14.6809 97.3315 13.9269C96.7205 13.3109 96.4105 12.6799 97.4315 12.1529C97.7665 11.9789 98.1575 11.8559 98.0995 11.3759C98.0365 10.8469 97.6015 10.7239 97.1765 10.6289C95.5625 10.2669 93.9505 9.90088 92.3305 9.56688C91.8765 9.47388 91.2815 9.20888 90.9675 9.63588C90.5555 10.1979 91.2915 10.4139 91.5425 10.7659C92.2435 11.7499 92.0075 12.8119 90.9285 12.8059C88.6475 12.7919 86.3425 12.6539 84.1765 11.7689C83.8025 11.6149 83.5695 11.3049 83.5505 10.9049C83.5275 10.3829 83.9455 10.1989 84.3335 10.0029C84.8955 9.71888 85.6275 9.93088 86.2325 9.28388M14.7945 79.5969C13.5435 81.0499 13.5745 82.6709 14.1225 84.3879C14.2645 84.8329 14.3225 85.3369 14.2845 85.8029C14.1205 87.8689 15.4275 89.7649 14.9685 91.8649C14.9305 92.0359 15.0945 92.2649 15.1965 92.4519C15.4235 92.8719 15.7795 93.0899 16.2555 92.9539C16.7965 92.7989 16.8095 92.3479 16.7135 91.9119C16.2295 89.6929 16.5445 87.3229 15.4315 85.2209C15.2275 84.8359 15.2885 84.4059 15.3115 83.9709C15.3915 82.4879 15.3495 81.0089 14.7895 79.5979C14.9665 78.1979 15.1375 76.7969 15.3225 75.3969C15.7305 72.2989 15.7105 69.1549 16.3245 66.0789C16.4225 65.5869 16.8435 64.8809 16.1865 64.6739C15.4865 64.4529 15.3015 65.2549 15.0855 65.7809C15.0065 65.9729 15.0005 66.1979 14.9775 66.4099C14.5975 69.8389 14.2255 73.2689 13.8405 76.6969C13.7145 77.8169 13.8705 78.8299 14.7945 79.5969M33.4325 144.088C30.2535 142.312 26.9195 138.337 23.0005 135.053C22.4545 134.595 22.1535 133.958 21.7165 133.431C19.8975 131.241 18.3765 128.833 16.2065 126.892C14.4235 125.298 13.4045 123.017 12.3925 120.828C12.1245 120.247 11.9795 119.548 11.5625 119.106C9.30853 116.709 8.23053 113.681 7.03153 110.738C5.09453 105.982 2.73253 101.345 2.44853 96.0679C2.43953 95.9079 2.44653 95.7279 2.37653 95.5939C0.80753 92.6199 1.37053 89.2049 0.41453 86.1139C-0.42447 83.4029 0.25953 80.6969 0.32053 77.9969C0.38053 75.3369 0.56953 72.6609 0.96353 70.0309C1.46453 66.6819 1.99753 63.3299 3.13653 60.1019C3.91153 57.9079 4.54153 55.6519 5.07753 53.3859C5.58853 51.2279 6.60653 49.2829 7.44153 47.2709C8.72353 44.1849 10.0855 41.1029 11.7655 38.2249C12.6785 36.6609 14.1895 35.4279 15.0775 33.7659C17.3585 29.4989 21.2255 26.6229 24.3785 23.1159C27.8795 19.2209 32.1545 16.3189 36.2255 13.1449C38.1105 11.6749 40.1285 10.3539 42.0885 9.01388C44.5075 7.36088 47.3585 5.82188 50.1905 5.42488C53.6655 4.93788 56.6175 3.07488 60.0865 2.67688C63.5185 2.28188 66.8445 0.997881 70.2755 0.555881C73.2705 0.170881 76.3395 0.310881 79.3775 0.133881C83.9055 -0.130119 88.4525 -0.0271192 92.9555 0.653881C95.0545 0.970881 97.1705 1.16888 99.1205 2.23988C99.9525 2.69588 101.11 2.52288 102.096 2.73988C105.017 3.38288 107.771 4.57088 110.666 5.33888C116.772 6.95788 121.535 11.0499 126.665 14.4589C129.612 16.4169 132.467 18.4729 134.89 21.0639C136.316 22.5899 138.005 23.8019 139.544 25.1879C140.398 25.9579 140.942 27.0609 141.726 27.9229C145.445 32.0099 148.583 36.5359 151.344 41.2829C153.536 45.0529 155.405 49.0109 156.673 53.2469C157.373 55.5859 157.883 57.9589 158.511 60.2729C159.392 63.5199 159.5 66.8879 160.551 70.0659C160.584 70.1669 160.638 70.2769 160.626 70.3759C160.169 74.1749 161.22 77.8879 161.242 81.6909C161.275 87.5719 159.903 93.1519 158.557 98.7289C157.83 101.743 156.577 104.711 155.779 107.713C154.893 111.045 152.958 113.788 151.773 116.913C151.046 118.828 149.981 120.543 148.377 121.88C148.053 122.15 147.715 122.474 147.546 122.847C145.889 126.503 142.937 129.203 140.574 132.334C138.773 134.722 136.157 136.269 134.099 138.425C131.034 141.637 127.044 143.74 123.612 146.526C121.625 148.138 119.192 148.887 117.022 150.131C114.177 151.763 110.874 152.407 108.109 154.036C105.327 155.674 102.073 154.897 99.4275 156.393C97.0605 157.732 94.4605 157.55 91.9565 157.903C87.8385 158.482 83.6915 158.988 79.5415 159.165C76.7365 159.285 73.9005 158.827 71.0865 158.55C68.8055 158.326 66.5255 158.056 64.2655 157.682C61.5345 157.231 58.8335 156.622 56.2375 155.619C53.1045 154.409 49.9305 153.319 46.8205 152.032C42.4425 150.22 38.5215 147.703 33.4325 144.088" sodipodi:nodetypes="ccccccccccccccccccccccccccccccccccccccccccccccccccccccccccccccccccccccccccccccccccccccccccccccccccccccccccccccccccccccccccccccccccccccccccccccccccccccccccccccccccccccccccccccccccccccccccccccccccccccccccccccccccccccccccccccccccccccccccccccccccccccccccccccccccccccccccccccccccccccccccccccccccccccccccccccccccccccccccccccccccccccccccccccccccccccccccccccccccccccccccccccccccccccccccccccccccccccccccccccccccccccccccccccccccccccccccccc"/><path id="shape01" transform="matrix(0.446249705530305 -0.00169809902161407 0.00170991146867529 0.450592834278641 18.2858461467302 17.8770610449498)" fill="#000000" fill-rule="evenodd" stroke-opacity="0" stroke="#000000" stroke-width="0" stroke-linecap="square" stroke-linejoin="bevel" d="M5.22325 135.443C5.31185 134.154 4.88745 133.269 4.90055 132.318C4.93555 129.801 4.96805 127.277 4.64035 124.769C4.57795 124.29 4.52775 123.652 3.94965 123.69C3.19035 123.739 3.59155 124.381 3.61515 124.804C3.74765 127.168 4.54685 129.45 4.22315 131.896C4.08815 132.917 4.41045 134.156 5.22325 135.443M132.055 229.517C134.494 229.643 136.56 228.828 138.7 228.744C138.951 228.734 139.245 228.574 139.152 228.222C139.061 227.878 138.735 227.673 138.44 227.66C136.221 227.561 133.859 226.968 132.055 229.517M207.535 47.956C207.864 50.211 212.254 55.206 213.843 55.333C212.745 51.991 209.47 50.563 207.535 47.956M214.285 185.685C212.644 187.186 211.799 188.734 210.489 190.562C212.016 190.04 213.149 189.982 214.299 190.058C214.922 190.099 215.187 189.574 215.401 189.072C215.541 188.743 215.542 188.401 215.175 188.271C214.062 187.878 214.126 186.97 214.285 185.685M105.558 228.884C105.611 228.984 105.634 229.121 105.708 229.159C108.594 230.613 111.634 230.207 114.665 229.883C114.934 229.855 115.236 229.751 115.167 229.41C115.075 228.955 114.678 228.955 114.293 228.91C111.768 228.61 109.212 229.018 106.691 228.562C106.32 228.495 105.834 228.42 105.558 228.884M220.544 66.027C220.848 65.412 220.8 64.914 220.538 64.629C219.219 63.197 218.683 61.331 217.708 59.714C217.354 59.127 216.951 58.568 216.55 58.012C216.305 57.673 215.961 57.552 215.575 57.767C215.108 58.028 215.269 58.404 215.484 58.714C215.823 59.203 215.902 59.829 216.2 60.284C217.499 62.265 218.124 64.777 220.544 66.027M203.64 198.019C202.428 198.864 201.939 200.255 200.884 200.845C197.857 202.537 195.768 205.345 192.923 207.229C192.169 207.728 191.475 208.313 190.967 209.078C190.68 209.511 190.788 209.851 191.331 209.769C192.119 209.65 193.191 209.283 193.336 208.699C193.913 206.375 196.287 206.004 197.585 204.475C198.93 202.891 201.424 202.455 202.147 200.13C202.226 199.878 202.606 199.703 202.871 199.53C203.338 199.223 203.682 198.858 203.64 198.019M169.156 219.017C169.61 219.237 170.006 219.049 170.379 218.854C173.351 217.296 176.327 215.746 179.276 214.145C179.779 213.872 180.748 213.577 180.398 212.889C180.081 212.266 179.177 212.508 178.531 212.822C178.294 212.938 178.016 213.051 177.867 213.248C176.984 214.427 175.667 214.912 174.368 215.32C172.557 215.889 171.363 217.5 169.534 218.02C169.198 218.116 168.794 218.505 169.156 219.017M66.3376 223.374C66.8056 223.867 67.4596 224.061 67.8906 223.584C68.9126 222.454 70.0116 222.656 71.2196 223.092C71.5786 223.222 72.1396 223.442 72.2256 222.811C72.2906 222.336 71.8596 222.072 71.3846 222.049C70.2446 221.993 69.3646 221.355 68.6096 220.634C67.5936 219.663 66.2486 219.817 65.0856 219.379C64.7026 219.234 64.1736 219.51 64.4636 219.931C65.2146 221.019 65.4156 222.394 66.3376 223.374M18.2841 168.381C17.353 165.73 16.5178 163.281 15.6318 160.849C14.7015 158.296 13.3172 155.894 13.1052 153.105C13.0686 152.623 12.7943 152.217 12.2941 152.36C11.7096 152.528 11.9324 153.025 12.0949 153.421C13.1641 156.023 13.5713 158.819 14.3775 161.5C15.0429 163.714 16.4859 165.458 17.2183 167.578C17.3323 167.908 17.6009 168.219 18.2841 168.381M232.802 101.31C232.984 100.046 233.196 98.785 233.321 97.516C233.346 97.258 233.103 96.89 232.876 96.704C231.578 95.638 231.473 94.202 231.404 92.666C231.332 91.036 231.053 89.41 230.162 87.969C229.969 87.657 229.853 87.225 229.375 87.329C228.881 87.437 228.747 87.851 228.731 88.308C228.699 89.185 229.05 89.956 229.346 90.758C230.213 93.111 231.644 95.293 231.379 97.993C231.257 99.229 232.053 100.243 232.802 101.31M222.786 160.145C222.379 160.638 221.962 161.123 221.847 161.786C221.384 164.445 220.049 166.755 218.906 169.144C218.542 169.906 218.042 171.067 218.906 171.407C219.772 171.748 220.169 170.498 220.439 169.746C220.943 168.348 221.443 166.983 222.195 165.672C223.167 163.976 223.844 162.109 224.628 160.307C224.798 159.916 224.938 159.432 224.517 159.135C224.003 158.772 223.628 159.183 223.291 159.528C223.106 159.718 222.953 159.939 222.786 160.145M220.225 74.167C219.959 75.04 220.306 75.759 220.589 76.477C221.941 79.909 223.558 83.224 224.504 86.833C224.981 88.651 225.567 90.482 226.22 92.268C226.346 92.613 226.473 93.029 226.958 92.959C227.464 92.887 227.433 92.47 227.403 92.09C227.271 90.443 227.116 88.793 226.221 87.345C225.559 86.274 225.128 85.115 225.193 83.881C225.265 82.494 224.69 81.592 223.618 80.821C223.037 80.404 222.119 79.908 222.343 79.13C223.004 76.83 220.804 75.877 220.225 74.167M7.92905 123.93C6.28575 126.056 9.34045 146.676 11.5004 148.548C9.37035 140.568 9.06765 132.318 7.92905 123.93M233.585 135.909C234.216 135.978 234.435 135.517 234.606 135.029C235.071 133.703 234.7 132.293 234.944 130.97C235.306 128.999 236.025 127.088 235.243 125.058C235.119 124.734 235.246 124.319 235.223 123.949C234.981 119.999 235.112 116.021 234.371 112.106C234.311 111.787 234.266 111.381 233.909 111.357C233.375 111.322 233.412 111.822 233.393 112.172C233.366 112.701 233.353 113.238 233.411 113.763C233.683 116.214 234.406 118.618 234.082 121.132C233.941 122.227 233.786 123.362 233.925 124.442C234.329 127.589 234.11 130.675 233.418 133.753C233.268 134.423 233.245 135.124 233.585 135.909M227.285 83.836C227.743 84.374 228.03 84.669 228.435 84.402C228.991 84.036 228.844 83.522 228.696 82.975C227.967 80.282 226.161 77.951 226.031 75.055C226.022 74.859 225.903 74.633 225.766 74.484C224.295 72.874 223.634 70.827 222.718 68.915C222.445 68.344 222.273 67.318 221.349 67.793C220.473 68.243 220.946 69.085 221.272 69.76C222.314 71.916 223.389 74.056 224.399 76.227C225.115 77.765 225.996 79.289 226.01 81.032C226.021 82.343 226.638 83.238 227.285 83.836M228.585 105.482C227.899 107.511 228.391 109.202 229.611 110.724C230.247 111.518 230.804 112.332 230.173 113.309C229.497 114.354 229.721 115.422 229.741 116.54C229.78 118.793 230.224 121.052 229.872 123.294C229.228 127.388 229.049 131.5 229.61 135.591C229.918 137.841 228.615 139.494 228.042 141.413C227.914 141.841 227.443 142.241 226.89 142.032C226.416 141.852 226.161 141.386 226.111 140.898C226.075 140.543 226.221 140.172 226.262 139.805C226.536 137.3 227.392 134.834 226.795 132.27C226.708 131.897 226.943 131.27 226.345 131.226C225.765 131.184 225.373 131.642 225.207 132.186C224.774 133.601 224.134 134.933 224.014 136.467C223.84 138.687 223.722 140.981 223.061 143.08C221.499 148.046 221.174 153.336 218.887 158.116C217.543 160.926 216.697 163.971 215.411 166.813C213.416 171.225 210.323 175.036 208.323 179.469C207.726 180.792 206.811 182.146 205.681 183.018C203.519 184.687 201.905 186.785 200.484 189.005C198.994 191.334 197.1 193.224 195.074 195.023C191.62 198.089 188.053 201.032 184.688 204.192C182.494 206.254 180.157 208.183 177.494 209.408C175.33 210.405 173.393 211.561 171.609 213.07C171.488 213.172 171.349 213.263 171.203 213.324C169.036 214.224 167.151 215.644 164.816 216.303C162.755 216.885 160.984 218.393 158.859 218.95C155.731 219.769 152.875 221.523 149.566 221.681C148.489 221.733 147.48 221.953 146.448 222.252C143.285 223.169 140.065 223.852 136.767 224.039C135.728 224.098 134.701 223.78 133.658 224.306C132.083 225.1 130.37 225.387 128.595 225.305C128.074 225.281 127.486 225.253 127.143 225.765C126.963 226.033 126.961 226.411 127.205 226.663C127.666 227.138 128.33 227.205 128.839 226.955C130.45 226.164 132.076 226.625 133.701 226.741C134.122 226.771 134.523 226.825 134.961 226.74C137.864 226.177 140.513 224.872 143.635 224.762C146.898 224.648 150.121 223.296 153.351 222.444C154.022 222.267 154.737 221.801 155.136 222.69C155.492 223.484 154.777 223.901 154.2 224.102C151.157 225.163 148.166 226.527 144.856 226.439C143.121 226.394 141.91 227.208 140.781 228.422C143.721 227.205 146.984 228.072 149.921 226.75C151.601 225.993 153.42 225.342 155.232 225.142C156.902 224.958 158.265 224.227 159.725 223.629C160.457 223.33 160.802 222.794 160.388 221.971C159.83 220.855 160.275 220.196 161.355 219.724C164.413 218.387 167.606 217.341 170.409 215.447C172.504 214.031 175.104 213.508 176.97 211.627C177.65 210.942 178.696 210.587 179.623 210.195C180.339 209.891 181.071 209.909 181.603 210.683C182.625 212.169 183.619 212.245 184.836 210.874C186.405 209.108 188.29 207.719 190.191 206.366C193.278 204.17 195.987 201.559 198.731 198.972C199.689 198.069 200.179 196.728 201.237 196.051C202.421 195.294 203.504 194.493 204.384 193.416C206.569 190.745 208.659 187.992 210.936 185.403C213.539 182.442 215.031 178.826 217.063 175.53C217.344 175.074 217.783 174.326 217.234 173.931C216.595 173.473 216.292 174.352 215.876 174.689C215.49 175.002 215.111 175.351 214.604 175.034C214.095 174.715 213.966 174.175 214.127 173.626C214.228 173.28 214.416 172.923 214.662 172.663C215.747 171.517 216.298 170.084 217.016 168.72C217.816 167.203 217.995 165.468 218.878 164.038C219.865 162.441 220.599 160.733 221.104 158.966C222.138 155.348 223.63 151.86 224.2 148.109C224.317 147.343 224.774 146.786 225.624 146.946C226.395 147.09 226.52 147.8 226.544 148.447C226.559 148.862 226.502 149.322 226.33 149.695C225.453 151.593 225.351 153.722 224.524 155.632C224.351 156.033 224.222 156.5 224.737 156.742C225.197 156.958 225.598 156.693 225.815 156.307C226.045 155.898 226.197 155.434 226.318 154.977C226.795 153.187 226.875 151.282 227.818 149.629C228.28 148.819 228.384 147.978 228.484 147.059C228.725 144.849 229.052 142.629 229.597 140.478C230.17 138.21 230.974 136.115 231.12 133.631C231.306 130.447 230.422 127.12 231.79 124.002C231.936 123.67 231.826 123.124 231.648 122.772C231.076 121.634 230.954 120.415 230.973 119.196C230.997 117.688 230.536 116.167 230.673 114.738C230.989 111.417 231.181 108.246 228.585 105.482M129.606 229.816C128.207 228.937 127.053 228.976 125.917 229.28C125.13 229.491 124.455 229.321 123.753 229.034C122.658 228.586 122.286 228.082 123.575 227.389C124.054 227.132 124.295 226.742 124.15 226.206C124.008 225.684 123.526 225.668 123.106 225.656C121.567 225.611 120.036 225.425 118.486 225.648C114.487 226.224 110.502 225.564 106.67 224.716C104.071 224.141 101.497 223.906 98.8946 223.656C97.9296 223.563 97.0566 223.322 96.1446 222.976C94.9866 222.536 93.9626 221.285 92.6206 221.802C90.8746 222.474 89.3816 221.99 87.8726 221.256C86.0976 220.395 84.3066 219.522 82.3916 219.09C79.6426 218.47 77.2446 217.149 74.7636 215.915C73.2416 215.158 72.0746 213.817 70.4116 213.379C68.1676 212.787 66.1466 211.8 64.3816 210.293C63.0406 209.148 61.5556 208.214 60.0586 207.29C57.3466 205.617 54.9196 203.549 52.4056 201.609C49.2346 199.161 46.5816 196.173 44.1766 192.997C43.4026 191.974 41.8986 191.661 41.6296 190.274C41.4736 189.47 41.0876 188.9 40.4506 188.465C38.5736 187.18 37.4786 185.242 36.5646 183.298C35.1276 180.236 32.8146 177.799 30.9966 175.019C29.8766 173.307 29.8046 171.463 29.2156 169.696C29.0886 169.314 29.2386 168.82 29.7036 168.62C30.1806 168.416 30.5386 168.721 30.8236 169.032C31.7206 170.011 32.6786 170.949 33.0766 172.282C33.9586 175.239 35.7256 177.748 37.4756 180.191C40.4026 184.28 43.1976 188.49 46.8126 192.053C49.0056 194.215 50.9406 196.667 53.2836 198.643C56.4356 201.303 59.7416 203.821 63.2976 205.931C64.9086 206.887 66.3916 207.924 67.8196 209.134C69.1826 210.29 70.7046 211.458 72.3616 212.037C78.5906 214.211 84.2926 217.66 90.6446 219.499C91.7446 219.817 92.7146 220.706 93.9496 220.414C94.7826 220.216 95.5286 220.32 96.2756 220.662C97.5266 221.234 98.8516 221.344 100.189 221.187C101.721 221.007 103.144 221.392 104.568 221.854C105.121 222.033 105.677 222.249 106.248 222.329C109.881 222.836 113.568 222.511 117.206 223.039C119.628 223.391 122.088 223.061 124.517 223.052C127.095 223.042 129.802 223.261 132.285 222.572C134.897 221.845 137.431 221.291 140.099 221.831C141.596 222.134 142.535 220.862 143.839 220.695C147.47 220.231 150.843 218.834 154.173 217.492C158.153 215.89 162.214 214.535 166.219 213.02C169.136 211.917 171.943 210.439 174.208 208.446C177.896 205.201 182.299 203.02 185.97 199.732C188.962 197.051 191.945 194.347 194.721 191.475C197.214 188.895 199.271 185.885 201.833 183.331C202.468 182.697 203.335 182.29 203.738 181.425C206.348 175.829 210.19 170.932 212.839 165.352C213.545 163.866 213.702 162.139 214.806 160.846C215.688 159.814 216.06 158.595 216.536 157.341C218.823 151.313 219.974 145.019 221.247 138.749C221.574 137.135 221.353 135.457 221.861 133.858C222.55 131.691 222.56 129.457 222.439 127.21C222.385 126.202 222.237 125.135 222.484 124.187C223.422 120.589 222.458 117.071 222.031 113.575C221.511 109.318 221.109 105.049 220.601 100.792C220.512 100.051 220.512 99.11 221.37 98.888C222.323 98.64 222.642 99.624 222.804 100.281C223.387 102.639 223.546 105.082 223.857 107.481C224.2 110.133 224.69 112.777 224.811 115.475C224.952 118.638 225.775 121.782 224.653 124.929C224.303 125.911 224.425 126.938 224.845 127.889C225.181 128.65 225.885 129.03 226.655 128.952C227.408 128.877 227.331 128.099 227.413 127.543C227.506 126.914 227.53 126.276 227.593 125.642C227.83 123.252 226.797 120.926 227.255 118.521C227.476 117.36 227.413 116.183 227.18 115.035C226.829 113.299 226.698 111.552 226.835 109.793C226.945 108.382 226.749 107.07 226.181 105.75C225.499 104.165 225.373 102.448 225.579 100.733C225.643 100.197 225.91 99.658 226.554 99.63C227.264 99.6 227.385 100.166 227.45 100.721C227.512 101.25 227.537 101.785 227.627 102.309C227.73 102.91 227.629 103.881 228.354 103.865C228.948 103.852 229.321 102.948 229.489 102.283C229.587 101.896 229.473 101.442 229.4 101.027C229.207 99.929 228.92 98.855 228.942 97.717C228.96 96.712 228.127 96.016 227.791 95.127C227.737 94.984 227.443 94.837 227.275 94.853C226.941 94.886 226.95 95.189 226.948 95.466C226.947 95.886 227.005 96.337 226.874 96.718C226.692 97.248 226.526 97.911 225.78 97.93C225.113 97.946 224.695 97.501 224.453 96.941C224.139 96.21 223.789 95.467 223.643 94.694C222.951 91.038 222.059 87.452 220.409 84.087C220.131 83.521 219.979 82.882 219.839 82.26C219.279 79.77 218.117 77.496 217.21 75.138C216.53 73.371 216.03 71.512 214.983 69.871C214.568 69.221 214.476 68.202 215.539 67.887C216.471 67.611 216.821 68.34 217.06 69.121C217.197 69.57 217.442 69.992 217.675 70.405C217.804 70.634 218.029 70.857 218.319 70.702C218.616 70.543 218.571 70.184 218.427 69.995C217.349 68.582 217.022 66.782 216.012 65.343C213.821 62.223 211.988 58.871 209.629 55.85C207.581 53.228 205.952 50.293 203.499 47.965C202.739 47.244 201.86 46.217 203.371 45.202C203.941 44.818 203.806 44.295 203.374 43.838C199.804 40.054 196.781 35.639 191.629 33.682C190.968 33.431 190.526 32.885 190.002 32.434C188.164 30.851 186.78 28.705 184.391 27.795C183.433 27.43 182.69 26.764 181.863 26.195C180.128 24.998 178.458 23.671 176.651 22.624C174.98 21.657 173.266 20.663 171.378 20.058C170.256 19.699 169.339 18.921 168.485 18.103C167.755 17.403 167.492 16.677 168.464 15.986C169.465 15.274 169.108 14.719 168.229 14.408C167.107 14.01 166.144 13.344 165.114 12.795C161.059 10.632 156.325 10.324 152.301 8.04201C150.672 7.12001 148.527 7.40901 146.964 6.55401C143.12 4.44901 138.875 4.76501 134.835 4.31801C128.775 3.64701 122.634 4.17101 116.524 4.39401C114.113 4.48201 111.649 5.10901 109.239 4.38801C107.808 3.95901 106.467 4.28001 105.212 4.83901C104.406 5.19801 103.578 5.54901 102.77 5.43601C99.7796 5.01701 97.1376 6.42701 94.3756 7.03301C89.9036 8.01401 85.6496 9.95901 81.0536 10.468C78.9146 10.704 77.5186 12.308 75.5936 12.946C72.8256 13.863 69.8876 14.718 67.5406 16.347C63.8596 18.901 59.7716 20.752 56.1876 23.446C52.2816 26.382 47.8536 28.589 44.4076 32.186C41.9116 34.792 39.2186 37.215 36.5386 39.638C34.2416 41.716 32.5516 44.334 30.2736 46.44C29.1146 47.512 27.6316 48.222 26.7816 49.669C25.1746 52.405 23.5156 55.113 21.7886 57.774C20.4346 59.86 19.6367 62.354 17.6023 63.94C16.4056 64.872 15.9181 66.095 15.6419 67.459C15.4499 68.408 15.0181 69.274 14.7918 70.194C14.2099 72.564 12.5374 74.415 11.7609 76.65C10.0025 81.714 8.18075 86.753 6.63795 91.9C5.47225 95.789 5.15635 99.782 4.20275 103.674C3.86005 105.071 3.73915 106.503 3.89895 107.95C3.93715 108.294 3.97825 108.607 4.35455 108.687C4.74945 108.77 4.93295 108.47 5.03555 108.161C5.40455 107.049 5.84645 105.911 5.59425 104.736C5.28205 103.281 5.57385 101.905 5.72945 100.475C5.96705 98.29 6.88985 96.311 7.31765 94.217C8.09995 90.385 10.2516 86.956 10.4909 82.981C10.5097 82.675 10.9408 82.413 11.116 82.095C12.3618 79.835 14.6073 78.008 14.9437 75.411C15.3229 72.483 16.8138 70.278 18.385 68.018C19.1716 66.886 19.9756 65.765 20.8156 64.674C21.0636 64.352 21.4536 64.039 21.9186 64.312C22.0496 64.389 22.1756 64.757 22.1096 64.843C21.2756 65.934 21.4196 67.386 20.6806 68.526C19.0006 71.12 17.7151 73.917 16.8587 76.884C16.3784 78.547 15.5927 80.029 14.6285 81.433C14.2356 82.004 13.7703 82.531 13.5787 83.21C12.1852 88.153 9.52925 92.611 8.60935 97.797C7.86565 101.988 7.40155 106.195 6.87005 110.397C6.60635 112.482 6.74915 114.636 6.88305 116.748C7.00685 118.698 6.63015 120.743 7.64275 122.68C8.69135 120.753 8.73735 118.729 8.55835 116.833C8.23685 113.426 9.21655 110.252 9.70575 106.981C9.94615 105.371 10.9218 104.026 11.0225 102.406C11.3874 96.539 13.5892 91.165 15.5163 85.718C15.8174 84.866 16.2977 84.097 17.3821 84.462C18.4587 84.824 18.1697 85.682 17.939 86.467C16.5006 91.363 14.5056 96.076 13.2153 101.023C12.8765 102.321 12.483 103.581 12.7305 104.937C12.829 105.474 12.7936 106.001 12.6151 106.513C11.5168 109.658 11.2805 112.96 11.1918 116.225C11.039 121.824 10.9446 127.405 11.6431 133.029C12.15 137.113 13.0274 141.138 13.4593 145.244C13.8897 149.332 15.4289 153.322 16.7623 157.283C17.493 159.454 18.7397 161.424 19.2677 163.619C19.7463 165.606 21.0456 166.961 22.1286 168.51C22.2796 168.727 22.5366 168.908 22.8126 168.787C23.1496 168.64 22.9476 168.359 22.9266 168.103C22.6666 164.913 20.8826 162.215 19.7685 159.36C18.2172 155.385 17.2391 151.314 16.1963 147.233C15.8629 145.927 15.6106 144.636 14.6199 143.639C14.1727 143.188 13.8983 142.712 14.3789 142.101C15.1988 141.057 15.0057 139.932 14.6847 138.759C14.195 136.967 13.4263 135.237 13.3521 133.348C13.208 129.692 13.4157 126.042 13.5894 122.392C13.62 121.751 13.7069 121.124 13.5022 120.498C13.0943 119.251 13.3566 118.088 13.9403 116.957C14.1871 116.479 14.3757 115.872 15.015 115.938C15.7926 116.019 15.8038 116.74 15.7999 117.308C15.7849 119.306 15.4934 121.275 15.7116 123.31C15.889 124.966 16.0592 126.661 15.9509 128.382C15.8018 130.752 16.1119 133.151 15.9047 135.538C15.8015 136.725 16.8096 137.578 16.8598 138.714C17.0502 143.041 18.2891 147.174 19.2103 151.364C19.3449 151.977 19.6301 152.571 19.9276 153.131C20.5836 154.362 21.0116 155.66 21.3666 157.007C21.8806 158.958 22.5526 160.882 23.5656 162.627C24.6906 164.566 25.7926 166.483 26.4066 168.667C26.9236 170.506 28.0496 172.151 28.1336 174.145C28.1466 174.451 28.6556 174.809 28.1876 175.077C27.7406 175.333 27.5186 174.888 27.3946 174.544C26.8776 173.106 25.8316 172.018 24.9536 170.823C24.6536 170.415 24.4106 169.578 23.6526 170.218C23.1076 170.678 22.4506 171.154 22.9826 172.086C23.7126 173.365 24.2996 174.728 25.0756 175.976C26.8446 178.82 28.6146 181.669 30.5286 184.414C32.6816 187.502 34.8726 190.579 37.2676 193.477C40.6966 197.625 44.8826 201.042 48.7986 204.709C50.7836 206.566 52.5516 208.712 55.2216 209.838C56.7376 210.478 58.0066 211.742 59.3246 212.801C61.7436 214.745 64.1136 216.739 67.5586 215.289C67.8196 215.179 68.1926 215.239 68.4876 215.317C70.3986 215.82 72.2206 216.544 73.9106 217.584C74.3226 217.838 74.5736 218.178 74.3786 218.639C74.1276 219.231 73.6276 219.153 73.1646 218.92C72.4136 218.542 71.6706 218.178 70.5436 218.398C71.5926 220.098 73.1516 220.833 74.7016 221.381C78.9276 222.874 83.2076 224.21 87.4666 225.61C87.7606 225.707 88.1406 225.948 88.3146 225.589C88.5526 225.098 88.0316 224.991 87.7256 224.836C87.3946 224.668 87.0256 224.575 86.6886 224.418C84.0686 223.191 81.0016 223.18 78.5726 221.428C77.9236 220.959 76.4886 220.855 76.8016 219.967C77.1686 218.925 78.4726 219.566 79.2046 219.853C82.2316 221.039 85.3796 221.802 88.4716 222.76C93.3476 224.271 98.3236 225.353 103.31 226.371C104.842 226.683 106.47 226.63 108.056 226.8C110.748 227.089 113.401 228.045 116.2 227.228C117.352 226.892 118.22 228.012 117.823 229.2C117.509 230.139 117.922 230.192 118.61 230.228C122.159 230.417 125.683 229.996 129.606 229.816M221.543 186.122C218.886 189.707 216.324 193.369 213.363 196.71C209.773 200.762 206.274 204.922 201.87 208.164C200.533 209.149 199.773 210.684 198.377 211.648C194.934 214.027 191.52 216.455 188.182 218.979C184.819 221.522 181.075 223.377 177.397 225.378C175.588 226.362 173.818 227.461 172.086 228.577C169.798 230.051 167.172 230.513 164.724 231.485C161.762 232.661 158.802 233.979 155.715 234.661C153.344 235.184 150.978 235.785 148.587 236.245C145.824 236.775 143.222 237.906 140.38 238.204C134.852 238.785 129.365 239.876 123.791 239.857C121.636 239.85 119.457 240.394 117.296 239.744C116.705 239.566 116.043 239.702 115.402 239.829C113.835 240.14 112.24 240.383 110.7 239.707C109.424 239.146 108.164 239.959 106.917 239.704C104.501 239.21 102.036 238.87 99.6246 238.462C96.0036 237.849 92.6186 236.27 88.9186 236.107C87.4196 236.041 86.2986 234.983 85.0396 234.322C84.1046 233.831 83.1926 233.521 82.1426 233.729C81.4346 233.868 80.7566 233.699 80.1026 233.475C76.3336 232.183 72.5416 230.929 69.0976 228.872C67.1266 227.694 64.7996 227.229 62.9226 225.95C59.4616 223.593 55.6766 221.733 52.4066 219.087C52.1996 218.92 52.0086 218.675 51.7706 218.612C49.0326 217.875 47.1956 215.872 45.1276 214.117C41.7246 211.228 38.3056 208.387 35.2316 205.122C33.2356 203.002 31.4396 200.709 29.3396 198.66C27.7226 197.083 26.0976 195.316 25.0776 193.15C24.3496 191.605 23.1246 190.362 21.9886 189.1C20.3666 187.3 19.2074 185.252 18.1387 183.085C16.0495 178.847 13.6247 174.772 11.5902 170.509C9.56155 166.258 7.45335 162.023 6.44545 157.344C5.92115 154.91 5.06985 152.543 4.32005 150.16C2.94395 145.787 2.18765 141.281 1.64255 136.754C1.44275 135.097 0.748048 133.61 0.584948 131.948C0.272348 128.757 0.986248 125.49 0.253448 122.403C-0.555352 118.998 0.865948 115.785 0.466348 112.47C-0.003552 108.572 0.648548 104.67 1.30115 100.91C1.84455 97.78 2.18965 94.526 3.39975 91.466C4.21105 89.415 4.93105 87.242 5.31285 85.071C5.87815 81.855 7.25755 79.015 8.68705 76.176C9.47825 74.604 10.2605 73.075 10.6194 71.315C11.227 68.332 12.6585 65.629 13.9348 62.905C14.9876 60.659 16.6559 58.746 17.8801 56.556C19.2408 54.121 20.9606 51.871 22.6726 49.656C24.4186 47.397 26.5906 45.438 28.1436 43.066C31.4096 38.075 36.2806 34.707 40.2966 30.486C40.7986 29.957 41.4926 29.615 42.0766 29.159C46.6826 25.569 51.3236 22.019 56.2566 18.892C58.7646 17.302 61.4936 16.066 64.0756 14.587C66.6606 13.106 69.2846 11.712 72.1146 10.774C73.8766 10.19 75.4086 9.12701 77.0786 8.37201C79.7756 7.15301 82.6176 6.35001 85.3776 5.67501C89.7606 4.60301 93.9166 2.80101 98.4246 2.06801C101.251 1.60801 104.19 1.58501 106.951 0.550005C108.442 -0.00899492 110.111 0.109005 111.706 0.214005C115.959 0.494005 120.195 -0.0729949 124.437 0.00800508C127.833 0.0730051 131.225 0.391005 134.618 0.604005C136.471 0.720005 138.326 0.986005 140.175 0.947005C143.545 0.875005 146.771 1.98001 149.757 3.01801C153.646 4.36901 157.643 5.49401 161.477 7.07401C164.117 8.16201 166.693 9.43601 169.45 10.281C171.049 10.772 172.574 11.652 173.982 12.583C176.69 14.374 179.651 15.739 182.279 17.661C183.083 18.249 184.04 18.662 184.977 19.026C187.151 19.87 188.979 21.141 190.458 22.96C191.118 23.772 192.295 23.767 193.125 24.353C196.034 26.407 198.635 28.833 201.326 31.151C201.686 31.461 201.942 31.904 202.326 32.174C207.354 35.713 210.937 40.615 214.822 45.25C216.654 47.436 217.93 49.904 219.351 52.329C220.48 54.254 222.25 55.791 223.549 57.632C224.791 59.394 225.929 61.262 226.513 63.38C226.821 64.498 227.547 65.371 228.212 66.245C229.663 68.149 230.405 70.386 231.149 72.573C232.036 75.182 233.734 77.492 233.983 80.337C234.021 80.77 234.362 81.209 234.645 81.581C235.31 82.455 235.758 83.401 235.762 84.512C235.772 87.028 237.245 89.14 237.668 91.556C238.334 95.361 239.651 99.033 239.805 102.956C239.879 104.845 240.499 106.698 240.707 108.604C240.869 110.087 241.072 111.539 240.98 113.045C240.839 115.367 241.419 117.646 241.343 120.005C241.151 125.93 241.236 131.875 240.156 137.724C239.589 140.8 238.707 143.829 237.796 146.827C237.3 148.459 237.1 150.143 236.638 151.783C236.027 153.946 235.456 156.065 234.111 157.907C233.935 158.149 233.765 158.548 233.842 158.797C234.663 161.449 232.826 163.361 231.961 165.518C231.329 167.094 230.594 168.607 230.264 170.301C229.938 171.972 229.347 173.543 228.28 174.953C226.22 177.673 224.91 180.845 223.182 183.768C222.697 184.589 222.093 185.339 221.543 186.122" sodipodi:nodetypes="cccccccccccccccccccccccccccccccccccccccccccccccccccccccccccccccccccccccccccccccccccccccccccccccccccccccccccccccccccccccccccccccccccccccccccccccccccccccccccccccccccccccccccccccccccccccccccccccccccccccccccccccccccccccccccccccccccccccccccccccccccccccccccccccccccccccccccccccccccccccccccccccccccccccccccccccccccccccccccccccccccccccccccccccccccccccccccccccccccccccccccccccccccccccccccccccccccccccccccccccccccccccccccccccccccccccccccccccccccccccccccccccccccccccccccccccccccccccccccccccccccccccccccccccccccccccccccccccccccccccccccccccccccccc"/><g id="group0" transform="matrix(0.44624973052039 -0.001698099116708 0.00170991156443072 0.450592859511943 -17.6495295211657 -29.1598889109715)" fill="none" mask="url(#clipmask0)">
  <path id="shape02" transform="translate(38.6039749407536, 65.6458285851775)" fill="#000000" fill-rule="evenodd" stroke-opacity="0" stroke="#000000" stroke-width="0" stroke-linecap="square" stroke-linejoin="bevel" d="M313.743 188.702C312.141 189.922 310.796 195.12 311.583 197.449C312.891 194.438 313.073 191.514 313.743 188.702M48.9099 262.787C47.1806 261.36 45.9203 259.53 44.6053 257.747C44.3392 257.386 44.026 256.985 43.5989 257.394C43.246 257.732 43.6289 258.064 43.8825 258.333C44.463 258.949 45.1806 259.412 45.6731 260.135C47.0379 262.141 48.2838 264.248 50.2396 265.782C50.554 266.029 50.7951 266.597 51.2532 266.18C51.5976 265.865 51.4419 265.284 51.1831 264.996C50.4781 264.212 49.6747 263.517 48.9099 262.787M79.928 289.464C80.199 289.799 80.484 290.118 80.96 290.129C81.231 290.135 81.541 290.101 81.577 289.784C81.595 289.631 81.421 289.389 81.268 289.293C78.654 287.661 76.03 286.044 73.407 284.426C73.135 284.258 72.776 284.028 72.548 284.324C72.233 284.733 72.655 285.002 72.938 285.208C74.819 286.573 76.573 288.154 78.884 288.801C79.31 288.92 79.684 289.079 79.928 289.464M82.881 290.542C82.932 291.397 83.173 291.668 83.483 291.891C85.729 293.508 88.484 294.224 90.673 295.943C90.753 296.006 90.867 296.04 90.97 296.055C91.341 296.109 91.796 296.635 92.062 296.057C92.272 295.604 91.786 295.35 91.457 295.067C88.994 292.947 85.692 292.53 82.881 290.542M286.431 64.8082C284.167 61.1432 280.86 58.4892 278.972 54.7722C278.713 54.2622 278.158 54.0092 277.622 54.4222C277.13 54.8002 277.133 55.3792 277.448 55.8592C277.704 56.2472 278.076 56.5762 278.444 56.8702C280.947 58.8672 283.288 61.0162 285.091 63.6952C285.381 64.1272 285.661 64.5982 286.431 64.8082M265.319 43.7782C265.822 43.9522 266.227 44.3782 266.71 44.0592C267.052 43.8332 266.842 43.4662 266.673 43.2082C265.325 41.1562 263.362 39.7832 261.341 38.4922C261.003 38.2762 260.463 38.1862 260.209 38.6702C259.945 39.1722 260.185 39.6382 260.65 39.8862C262.494 40.8682 264.293 41.8912 265.319 43.7782M302.599 90.0552C300.818 85.7012 298.542 81.6332 295.501 78.0212C297.53 82.2282 299.544 86.4412 302.599 90.0552M314.317 184.858C315.364 183.641 315.766 181.973 315.821 180.643C315.952 177.448 316.669 174.321 316.676 171.131C316.677 170.711 316.654 170.284 316.574 169.874C316.539 169.697 316.352 169.448 316.198 169.417C315.862 169.351 315.769 169.667 315.721 169.925C315.508 171.075 315.018 172.284 315.403 173.391C316.103 175.404 315.21 177.278 315.204 179.217C315.197 181.136 314.307 182.891 314.317 184.858M58.9303 274.848C59.7479 275.394 60.6438 276.076 61.622 276.604C62.062 276.841 62.709 277.583 63.121 276.929C63.558 276.235 62.621 276.055 62.19 275.735C60.0291 274.127 57.7817 272.625 55.9421 270.628C55.2941 269.925 54.7368 269.137 54.0698 268.453C53.7301 268.105 53.2367 267.49 52.7375 267.967C52.1879 268.493 52.7376 269.098 53.1302 269.473C55.0051 271.263 56.9285 273.003 58.9303 274.848M314.366 136.599C313.38 141.031 315.03 144.941 315.376 149.405C316.662 147.234 317.084 145.444 316.196 143.454C315.766 142.492 315.282 141.48 315.515 140.385C315.812 138.994 315.198 137.922 314.366 136.599M283.487 253.306C283.365 253.221 283.243 253.135 283.121 253.05C282.973 253.188 282.817 253.318 282.679 253.464C280.31 255.979 277.946 258.5 275.573 261.01C275.068 261.544 274.395 261.963 274.418 262.817C274.42 262.901 274.661 263.065 274.768 263.048C275.602 262.911 276.103 262.349 276.675 261.746C277.853 260.502 278.695 258.884 280.331 258.12C282.444 257.134 282.605 255.012 283.487 253.306M265.889 271.732C267.641 270.883 269.278 270.52 270.624 269.485C270.815 269.338 271.04 269.041 271.016 268.841C270.866 267.578 271.751 266.941 272.492 266.185C273.088 265.577 273.906 264.494 273.342 264.049C272.688 263.532 271.546 264.25 270.985 265.028C270.396 265.843 269.7 266.524 269.036 267.252C267.908 268.491 266.531 269.644 265.889 271.732M310.569 200.459C310.313 202.706 308.148 204.177 308.328 206.632C308.449 208.29 307.936 209.92 306.918 211.294C305.722 212.907 305.528 214.981 304.393 216.621C304.156 216.963 304.162 217.445 304.771 217.795C305.161 216.409 306.887 215.795 306.996 214.44C307.221 211.63 308.797 209.364 309.595 206.803C310.229 204.768 311.233 202.778 310.569 200.459M251.857 33.1217C254.17 34.9812 256.393 36.2182 258.633 37.4232C258.938 37.5872 259.402 37.7622 259.62 37.3202C259.827 36.8982 259.428 36.6302 259.132 36.4282C255.549 33.9805 251.966 31.5337 248.359 29.1209C247.851 28.7801 247.123 28.7289 246.806 29.3341C246.534 29.8538 247.113 30.0838 247.542 30.3471C249.116 31.312 250.651 32.3402 251.857 33.1217M264.414 273.431C262.919 273.299 262.222 273.82 261.594 274.473C259.97 276.162 258.378 277.865 256.157 278.839C255.516 279.12 254.886 279.627 254.667 280.429C254.517 280.98 254.078 281.268 253.6 281.551C252.501 282.202 251.435 282.908 250.362 283.602C249.721 284.016 249.306 284.566 249.233 285.913C254.609 281.882 259.68 278.197 264.414 273.431M232.573 295.669C231.187 295.303 230.105 295.009 229.551 296.5C229.453 296.763 229.202 296.982 228.937 296.929C227.068 296.559 225.73 297.918 224.164 298.461C222.932 298.888 221.498 298.971 220.473 299.846C218.611 301.437 216.362 302.018 214.072 302.522C213.482 302.651 212.949 302.849 212.484 303.216C212.238 303.41 211.951 303.649 212.195 304.011C212.367 304.265 212.67 304.254 212.918 304.147C213.552 303.872 214.221 303.638 214.787 303.256C216.692 301.968 218.884 301.544 221.065 301.098C221.962 300.914 222.912 300.785 223.138 302.133C223.234 302.707 223.74 302.685 224.152 302.47C224.633 302.219 224.498 301.911 224.156 301.596C223.394 300.895 224.158 300.705 224.551 300.297C226.714 298.053 229.793 297.42 232.573 295.669M8.10823 156.69C8.45853 158.327 7.37263 159.469 7.60133 160.677C8.12393 163.441 7.76663 166.324 8.79153 169.009C9.01353 169.591 8.79733 170.158 8.69293 170.734C8.38153 172.453 8.74763 173.715 9.68613 174.316C10.108 172.266 9.43933 170.184 9.66363 168.202C9.93423 165.811 9.95853 163.438 10.0073 161.055C10.0395 159.486 9.62823 158.05 8.10823 156.69M17.0173 210.343C17.3175 209.481 17.1381 209.075 17.0223 208.676C15.8981 204.797 14.5403 201.002 13.7667 197C13.2569 194.362 12.8772 191.683 12.2428 189.047C11.2573 184.949 10.9725 180.684 10.3917 176.49C10.3427 176.138 10.4392 175.639 9.88263 175.68C9.42583 175.714 9.32653 176.13 9.35983 176.529C9.51203 178.382 9.65783 180.236 9.84383 182.085C9.93993 183.041 10.6923 183.815 10.6392 184.829C10.4869 187.748 11.5042 190.479 12.0493 193.284C12.6934 196.598 13.4761 199.886 14.1185 203.201C14.6001 205.689 15.6986 207.885 17.0173 210.343M262.669 44.3072C262.42 44.1052 262.194 43.8622 261.917 43.7112C261.463 43.4632 261.056 42.5552 260.506 43.2172C260.107 43.6982 260.098 44.5552 260.554 45.1712C260.834 45.5502 261.212 45.8822 261.605 46.1492C265.845 49.0292 269.195 52.9282 272.937 56.3522C275.618 58.8062 278.432 61.4182 280.092 64.8582C280.3 65.2912 280.667 65.7332 280.184 66.1432C279.755 66.5082 279.236 66.3202 278.868 65.9932C278.314 65.5002 277.847 64.9132 277.307 64.4022C277.04 64.1492 276.666 63.8852 276.302 64.1412C275.859 64.4522 276.006 64.9282 276.248 65.2872C276.989 66.3912 277.687 67.5402 278.553 68.5412C281.589 72.0462 284.452 75.6792 287.029 79.5362C288.183 81.2622 289.488 82.8822 290.514 84.6982C290.742 85.1002 291.199 85.7492 291.773 85.3482C292.249 85.0152 291.814 84.4692 291.585 84.0652C291.208 83.4002 290.987 82.6922 290.97 81.9342C290.96 81.4462 290.5 80.7892 291.187 80.5122C291.839 80.2482 292.271 80.8042 292.616 81.2832C294.042 83.2652 295.492 85.2322 296.462 87.5012C296.661 87.9662 296.682 88.9572 297.492 88.5832C298.264 88.2272 297.727 87.4462 297.478 86.9022C297.308 86.5292 296.934 86.2542 296.686 85.9102C295.695 84.5392 294.609 83.2212 293.756 81.7672C292.172 79.0642 290.634 76.3252 289.257 73.5122C288.437 71.8382 287.05 70.6682 285.916 69.3082C284.016 67.0302 283.082 63.8042 279.839 62.7492C279.587 62.6672 279.353 62.3052 279.252 62.0222C278.433 59.7292 276.944 57.9722 275.247 56.2362C271.203 52.0972 267.317 47.8052 262.669 44.3072M232.23 20.3829C232.779 21.0198 233.034 21.8555 233.811 22.3539C236.281 23.9367 239.024 24.983 241.601 26.3557C242.493 26.8311 243.216 27.6835 244.279 27.877C244.454 27.3837 244.106 27.2117 243.922 26.9811C242.297 24.9415 239.844 24.1232 237.678 22.9414C235.93 21.9872 234.33 20.612 232.231 20.3707C228.268 18.199 224.234 16.2882 219.913 14.8097C216.51 13.6455 213.158 12.286 209.698 11.2214C207.467 10.5349 205.207 10.2402 202.828 9.80557C203.06 10.5851 203.436 10.9016 203.976 11.0937C206.282 11.9146 208.531 12.9599 210.895 13.5437C216.255 14.8682 221.355 16.8939 226.513 18.7968C228.345 19.4725 230.007 21.0417 232.23 20.3829M156.597 312.035C158.057 312.487 159.445 312.91 160.943 312.676C161.829 312.537 162.402 312.09 162.386 311.082C162.361 309.527 163.378 308.898 164.682 309.118C167.724 309.631 170.601 308.711 173.536 308.337C175.53 308.083 177.559 308.203 179.527 307.632C182.504 306.769 185.739 307.308 188.633 306.356C190.765 305.655 192.799 305.491 194.971 305.269C197.772 304.982 200.484 303.733 203.204 302.809C204.123 302.497 205.015 302.181 205.989 302.178C206.7 302.176 207.401 302.036 207.99 301.683C210.899 299.938 214.18 299.099 217.36 298.168C220.173 297.344 222.82 296.139 225.579 295.213C227.569 294.546 229.382 293.336 231.247 292.317C234.502 290.54 237.741 288.732 240.978 286.92C242.513 286.061 243.727 284.727 245.158 283.792C247.894 282.006 250.585 280.157 253.277 278.309C254.522 277.455 255.901 276.85 256.812 275.451C257.574 274.283 259.276 274.134 260.302 273.02C262.063 271.107 263.769 268.975 266.099 267.825C268.329 266.724 269.318 264.566 271.058 263.073C272.803 261.576 274.066 259.524 275.566 257.737C277.34 255.623 279.128 253.522 280.934 251.437C281.574 250.699 282.022 250.053 281.291 249.057C280.779 248.358 280.997 247.651 281.995 247.62C285.467 247.511 286.862 244.971 288.079 242.346C288.481 241.48 288.982 240.804 289.653 240.201C289.931 239.951 290.283 239.726 290.643 240.072C290.912 240.332 290.823 240.661 290.692 240.963C290.628 241.108 290.556 241.258 290.454 241.377C288.597 243.54 287.93 246.349 286.465 248.727C286.112 249.3 285.602 249.655 285.146 250.093C284.952 250.279 284.759 250.521 284.925 250.791C285.147 251.154 285.524 251.048 285.762 250.857C286.174 250.526 286.534 250.126 286.89 249.731C288.596 247.835 289.796 245.504 291.907 243.951C292.18 243.75 292.416 243.338 292.451 243C292.716 240.42 294.21 238.386 295.42 236.234C296.208 234.832 297.515 234.127 299.106 234.128C299.693 234.128 300.162 234.221 300.37 233.544C300.512 233.078 300.445 232.947 299.866 232.898C297.337 232.685 295.799 234.311 294.164 235.796C293.971 235.971 293.764 236.132 293.557 236.292C293.525 236.316 293.458 236.295 293.269 236.296C293.029 234.205 293.687 232.382 294.86 230.696C296.47 228.382 298.135 226.111 299.2 223.459C299.664 222.306 300.11 221.188 300.07 219.927C300.057 219.487 300.174 219.086 300.454 218.734C302.944 215.603 303.995 211.879 304.832 208.068C304.912 207.703 304.9 207.25 305.117 206.994C307.542 204.132 307.228 200.112 309.309 197.11C309.484 196.857 309.634 196.514 309.624 196.219C309.543 193.742 310.715 191.489 310.917 189.101C311.138 186.498 311.559 183.927 311.861 181.341C312.477 176.062 313.34 170.81 313.523 165.488C313.636 162.197 313.432 158.903 313.077 155.637C312.798 153.077 313.144 150.541 313.07 147.989C312.968 144.47 311.841 141.213 311.287 137.822C311.038 136.302 311.039 135.098 312.7 134.391C313.503 134.049 313.833 133.161 313.729 132.378C313.297 129.118 313.104 125.817 312.192 122.631C312.082 122.244 311.913 121.94 311.465 121.921C311.148 124.403 312.42 126.74 312.06 129.251C311.942 130.075 313.007 130.772 312.916 131.757C312.864 132.318 313.252 132.979 312.7 133.414C312.259 133.762 311.778 133.467 311.386 133.177C310.777 132.725 309.976 132.131 310.381 131.376C311.25 129.751 310.329 128.576 309.82 127.178C309.169 125.388 308.691 123.49 308.478 121.6C308.285 119.895 307.559 118.431 306.939 116.925C305.262 112.856 304.303 108.531 302.215 104.593C300.994 102.289 300.315 99.7072 298.926 97.4342C298.222 96.2812 297.668 94.4172 298.757 93.7102C299.398 93.2952 300.961 95.0512 301.324 96.3092C302.131 99.1062 303.378 101.647 305.308 104.29C305.137 102.813 305.378 101.597 304.614 100.476C303.443 98.7582 302.401 97.0032 301.81 94.9542C301.484 93.8242 300.608 92.8392 299.919 91.8302C299.473 91.1752 298.881 91.4242 298.381 91.7972C297.3 92.6052 296.605 92.1012 296.054 91.1372C295.498 90.1642 294.952 89.1842 294.445 88.1852C294.197 87.6982 293.938 87.2452 293.471 86.9462C293.166 86.7512 292.846 86.3762 292.476 86.6442C292.092 86.9212 292.335 87.3072 292.513 87.6422C293.637 89.7602 294.419 92.0902 295.587 94.1122C296.883 96.3552 298.089 98.5562 299.097 100.963C301.309 106.24 303.776 111.396 304.745 117.106C305.083 119.095 306.097 120.918 306.375 122.939C306.468 123.614 306.838 124.5 306.021 124.77C305.321 125.001 304.754 124.246 304.472 123.619C304.015 122.601 303.61 121.543 303.329 120.464C302.24 116.289 300.561 112.31 299.27 108.218C298.464 105.665 297.207 103.347 296.368 100.841C296.034 99.8462 295.4 98.9532 294.917 98.0062C292.798 93.8532 291.206 89.4142 288.522 85.5742C286.71 82.9812 285.106 80.1422 282.237 78.4492C282.03 78.3272 281.813 78.0622 281.777 77.8352C281.318 74.9392 279.056 73.1692 277.399 71.0892C273.554 66.2632 269.216 61.8662 264.887 57.4692C264.036 56.6052 263.385 55.5392 262.679 54.5392C262.295 53.9942 262.01 53.3292 262.67 52.8292C263.281 52.3662 263.939 52.6882 264.404 53.1552C265.681 54.4372 267.016 55.6822 268.221 57.0092C269.957 58.9222 272.023 60.5522 273.391 62.8052C273.846 63.5552 274.863 63.5692 275.399 63.2372C276.075 62.8182 275.218 62.2622 275.029 61.7682C274.745 61.0242 274.011 60.7132 273.472 60.2092C270.752 57.6652 268.156 55.0342 264.966 52.9802C262.724 51.5362 261.002 49.2982 259.001 47.4662C255.22 44.0062 250.878 41.2892 246.778 38.2512C244.03 36.2162 241.144 34.4552 238.227 32.715C237.439 32.2449 236.685 31.7419 236.188 30.9536C235.922 30.5323 235.332 30.1203 235.778 29.5598C236.131 29.1164 236.67 29.3873 237.126 29.512C238.737 29.9532 240.174 30.7437 241.588 31.6228C246.979 34.9742 252.245 38.5082 257.362 42.2652C257.448 42.3282 257.532 42.3962 257.626 42.4442C258.414 42.8412 259.4 42.8392 259.787 42.1902C260.164 41.5542 259.219 40.7292 258.749 40.6252C256.259 40.0752 254.936 37.8752 252.881 36.6952C249.343 34.6642 245.887 32.4421 242.497 30.1815C239.77 28.3628 236.73 27.2835 233.965 25.6111C232.218 24.5547 230.158 23.9892 228.364 22.9475C225.48 21.2722 222.09 20.705 219.331 18.7669C219.245 18.7064 219.144 18.6465 219.043 18.6315C215.943 18.1705 213.353 16.0618 210.153 15.9016C208.804 15.8338 207.6 15.2413 206.352 14.7474C204.386 13.9697 202.245 13.7029 200.3 12.7956C199.601 12.4699 198.896 12.2495 198.659 11.4309C198.386 10.4872 199.287 10.4689 199.745 10.1188C200.053 9.88317 200.387 9.67997 200.266 9.23187C200.151 8.80717 199.752 8.73587 199.391 8.63107C196.722 7.85667 194.011 7.24257 191.238 7.09557C189.089 6.98187 187.203 6.16037 185.291 5.34577C184.659 5.07667 184.337 4.49447 184.074 3.90987C183.512 2.66157 184.198 1.60057 185.507 1.93297C187.819 2.51947 190.296 2.41097 192.466 3.59857C193.458 4.14077 194.6 3.65687 195.616 3.92747C200.239 5.15837 205.049 5.63067 209.517 7.50237C212.06 8.56707 214.919 8.59937 217.423 9.95117C220.076 11.3831 222.787 12.83 225.642 13.7338C228.662 14.69 231.505 15.9561 234.337 17.308C238.751 19.4145 242.93 21.9263 247.152 24.3904C252.324 27.4097 257.233 30.7516 261.896 34.4742C265.091 37.0242 268.257 39.6052 271.173 42.4972C273.432 44.7372 276.053 46.6212 278.017 49.1582C281.886 54.1542 286.643 58.3982 289.965 63.8832C291.908 67.0912 294.88 69.6772 296.817 72.8882C299.084 76.6442 301.532 80.2952 303.557 84.2292C305.111 87.2472 306.35 90.4162 308.052 93.3752C310.275 97.2382 311.808 101.451 312.829 105.803C313.429 108.361 315.059 110.468 315.583 113.091C316.401 117.182 318.24 121.036 318.262 125.34C318.268 126.606 319.024 127.875 319.476 129.129C319.888 130.269 320.129 131.439 319.581 132.554C319.077 133.578 319.67 134.437 319.831 135.338C320.23 137.571 320.404 139.824 321.365 141.988C321.97 143.35 322.106 145.071 321.502 146.668C321.048 147.868 320.819 149.062 321.343 150.388C321.85 151.67 321.731 152.976 320.674 154.105C319.653 155.195 319.778 156.294 320.923 157.296C321.755 158.024 322.086 159.009 321.787 160.053C321.022 162.731 321.743 165.34 322.064 167.965C322.297 169.87 322.194 171.699 320.925 173.226C320.274 174.009 320.127 174.663 320.746 175.493C321.688 176.757 321.133 178.211 321.078 179.54C320.914 183.538 320.213 187.439 318.922 191.269C318.117 193.659 318.198 196.295 317.513 198.768C316.263 203.28 315.841 208.061 313.913 212.326C312.409 215.653 311.782 219.379 309.427 222.338C308.315 223.733 308.221 225.629 307.417 227.19C305.548 230.821 303.456 234.35 301.809 238.077C300.363 241.351 298.123 244.109 296.453 247.236C294.926 250.097 292.587 252.539 290.505 255.082C288.855 257.097 288.028 259.723 285.867 261.338C282.894 263.561 281.243 266.99 278.416 269.386C277.123 270.482 276.193 272.052 274.905 273.27C272.774 275.284 270.279 276.826 268.122 278.82C266.511 280.312 264.802 281.795 263.286 283.326C260.974 285.662 258.29 287.405 255.784 289.427C253.009 291.665 249.55 292.835 246.879 295.203C245.335 296.572 243.653 297.59 241.614 298.046C240.963 298.192 240.258 298.547 239.8 299.021C237.504 301.394 234.383 302.098 231.497 303.291C230.316 303.779 229.155 304.325 228.021 304.914C226.354 305.78 224.624 306.403 222.777 306.804C219.879 307.433 217.126 308.533 214.447 309.795C213.503 310.239 212.479 310.275 211.495 310.466C209.643 310.826 208.053 312.126 206.205 312.192C202.661 312.318 199.54 314.104 196.106 314.491C193.297 314.807 190.563 315.426 187.815 316.016C185.541 316.503 183.275 317.044 180.981 317.415C179.308 317.686 177.59 317.669 175.902 317.867C170.952 318.448 165.937 317.791 161.009 318.583C157.394 319.164 153.899 318.403 150.366 317.954C149.734 317.874 149.066 317.723 148.464 317.844C146.671 318.204 145.098 317.638 143.529 316.911C143.198 316.758 142.777 316.507 142.488 316.595C138.81 317.719 135.409 316.346 131.897 315.61C128.443 314.885 124.91 314.53 121.404 314.076C120.327 313.937 119.289 313.743 118.359 313.185C115.692 311.587 112.713 310.409 109.796 309.884C105.145 309.046 101.431 306.263 97.104 304.889C95.28 304.31 93.441 303.761 91.598 303.245C90.598 302.965 89.63 302.665 88.844 302.04C86.189 299.93 83.123 298.534 80.109 297.101C75.568 294.941 71.855 291.469 67.328 289.31C66.258 288.799 65.53 287.812 64.72 286.975C63.363 285.572 61.491 284.94 60.0306 283.705C59.8283 283.535 59.5234 283.43 59.4099 283.218C58.3834 281.297 56.5145 280.318 54.8053 279.233C48.9847 275.537 45.0207 270.042 40.5386 265.013C38.5523 262.785 37.1861 260.095 34.9595 258.087C34.7646 257.911 34.5866 257.69 34.4733 257.454C31.9472 252.194 27.9483 247.941 24.7062 243.171C23.86 241.926 23.1812 240.622 22.863 239.121C22.6674 238.199 21.9415 237.476 21.5161 236.685C20.4166 234.64 18.6998 233.437 17.061 231.953C15.5748 230.606 14.7734 228.193 14.3089 226.109C13.7467 223.587 12.2705 221.57 11.3659 219.261C11.152 218.716 10.6905 218.172 10.8426 217.612C11.5784 214.907 9.94833 212.781 9.18723 210.443C9.05513 210.038 8.82833 209.646 8.78663 209.234C8.31503 204.578 6.14173 200.41 4.97883 195.952C4.69553 194.866 4.35743 193.815 4.39943 192.664C4.42603 191.928 4.40493 191.127 4.14583 190.455C3.13283 187.826 3.04063 185.032 2.58003 182.309C2.33823 180.88 2.09883 179.476 1.52833 178.139C1.38273 177.798 1.15963 177.407 1.21303 177.078C1.70163 174.063 0.0677251 171.191 0.753025 168.1C1.06553 166.69 0.429925 165.056 0.163925 163.534C-0.106175 161.987 -0.261975 160.566 1.53773 159.733C2.36313 159.351 2.28953 158.672 1.45103 158.358C0.111325 157.856 0.0779251 156.926 0.342025 155.77C0.629725 154.51 0.560725 153.236 0.461425 151.948C0.313425 150.029 0.364025 148.132 1.24373 146.317C1.62903 145.522 1.76073 144.581 1.88813 143.689C2.29993 140.812 2.49083 137.868 3.04173 135.055C3.97833 130.272 4.13073 125.32 5.91303 120.701C6.50583 119.166 6.09763 117.338 7.02013 115.903C8.13843 114.162 8.69123 112.219 9.24083 110.285C10.1988 106.91 11.4618 103.649 12.7231 100.386C13.5829 98.1632 14.9585 96.1692 15.6589 93.8722C16.3951 91.4582 17.7625 89.3462 19.0792 87.2542C21.5387 83.3462 23.5889 79.2052 26.0052 75.2672C27.679 72.5382 29.9084 70.2142 31.3195 67.2802C32.4532 64.9242 34.2175 62.8332 35.9041 60.7912C38.4042 57.7652 40.804 54.5592 43.7644 52.0382C46.6382 49.5902 48.5983 46.2522 51.894 44.2522C53.0963 43.5232 54.1594 42.4312 55.0216 41.3022C57.1282 38.5432 60.2641 37.0132 62.674 34.6282C63.62 33.6919 64.908 33.2161 66.006 32.4683C68.734 30.6116 71.342 28.6119 73.825 26.452C75.184 25.2705 76.952 24.9036 78.413 23.8923C81.559 21.7137 84.848 19.7133 88.367 18.202C91.561 16.8304 94.561 15.1321 97.587 13.457C98.233 13.0992 98.952 12.7416 99.669 12.6613C103.473 12.2364 106.583 9.97077 110.11 8.80287C113.241 7.76627 116.235 6.35287 119.563 5.93477C121.578 5.68167 123.539 5.09417 125.399 4.28697C126.723 3.71217 128.125 3.86657 129.478 3.63447C131.941 3.21197 134.301 2.32827 136.831 2.19387C139.064 2.07547 141.262 1.65367 143.455 1.12917C146.882 0.309772 150.419 0.679272 153.91 0.559172C154.226 0.548272 154.569 0.703372 154.858 0.626272C158.544 -0.355028 162.197 -0.00652859 165.938 0.478672C169.881 0.990572 173.908 0.509072 177.895 0.812872C179.316 0.921372 180.256 1.59477 181.006 2.74697C181.711 3.82947 181.36 4.57307 180.257 4.77277C178.559 5.08087 176.868 5.56287 175.078 4.88947C172.963 4.09387 170.823 3.95767 168.505 4.49917C165.921 5.10307 163.196 4.62817 160.561 4.32557C159.571 4.21187 158.593 3.93787 157.577 4.01917C153.5 4.34377 149.391 4.27687 145.346 4.94737C144.045 5.16307 142.784 5.61087 141.499 5.92727C141.089 6.02847 140.629 6.17577 140.241 6.08707C136.267 5.18007 132.761 7.33277 128.993 7.77057C124.394 8.30467 120.171 10.5387 115.444 10.7187C113.984 10.7742 112.566 11.9842 111.137 12.6816C110.852 12.8205 110.626 13.1297 110.335 13.1973C105.398 14.3427 101.383 17.9004 96.274 18.5701C94.505 18.8021 93.453 20.1988 92.033 20.9853C89.891 22.1706 87.716 23.2913 85.377 24.0868C81.007 25.5726 77.68 28.6979 74.108 31.4302C73.812 31.6566 73.548 31.9345 73.228 32.1193C67.497 35.4432 62.919 40.2332 57.7529 44.2732C52.1975 48.6192 47.4014 53.7672 42.5783 58.8632C41.0712 60.4552 39.8007 62.3572 38.4968 64.1732C34.4945 69.7482 30.1759 75.1302 26.8361 81.1272C23.8186 86.5462 20.5246 91.8352 18.1305 97.5922C16.5868 101.304 14.9472 104.978 13.7926 108.84C13.6551 109.3 13.4944 109.753 13.3802 110.219C13.3065 110.52 13.2035 110.901 13.5644 111.07C13.937 111.245 14.1482 110.902 14.3239 110.649C15.207 109.375 15.8119 107.955 16.3863 106.528C18.0708 102.343 19.3934 97.9692 21.494 94.0082C23.5108 90.2042 25.111 86.0552 28.3527 82.9772C28.5657 82.7742 28.6254 82.4102 28.7566 82.1212C29.6141 80.2342 30.3983 78.3432 32.0393 76.8982C33.4499 75.6562 33.9454 73.7292 34.9981 72.1832C36.4583 70.0372 38.4169 68.3902 40.0262 66.4142C40.1594 66.2502 40.3803 66.1432 40.4778 65.9652C43.4303 60.5802 48.4279 57.0022 52.4282 52.5472C53.933 50.8722 55.7153 49.3502 57.6839 48.1472C59.5674 46.9952 60.6567 44.9512 62.58 43.8482C62.853 43.6912 63.059 43.4082 63.339 43.2732C63.875 43.0152 64.504 42.7752 64.921 43.3962C65.285 43.9372 64.904 44.4092 64.51 44.7992C62.546 46.7452 60.5367 48.6422 58.1871 50.1272C56.6795 51.0812 55.3953 52.2402 54.3668 53.7142C53.3553 55.1632 51.9908 56.2842 50.7005 57.4862C48.4546 59.5782 46.2972 61.7362 44.4395 64.2442C42.6809 66.6182 40.8425 68.9852 38.8037 71.1422C37.4225 72.6042 36.484 74.2942 35.5279 76.0132C34.8047 77.3132 34.0618 78.6212 33.1623 79.7992C31.1014 82.4982 28.7721 85.0272 27.3807 88.1602C25.9226 91.4432 23.3801 94.1472 22.4363 97.7002C22.2084 98.5592 21.6814 99.3382 21.2897 100.153C18.8909 105.14 16.9283 110.307 15.1866 115.548C14.1831 118.567 13.5813 121.717 12.6971 124.78C12.1675 126.613 11.9344 128.5 11.3554 130.336C10.2704 133.776 9.90353 137.393 9.42903 140.964C9.20473 142.649 9.07713 144.35 8.69533 146.008C7.97233 149.149 7.95923 152.297 8.38753 155.666C9.42383 155.125 9.75063 154.359 9.93773 153.446C10.1516 152.404 10.3986 151.363 10.7269 150.353C10.8703 149.913 10.8525 149.103 11.606 149.255C12.2576 149.385 12.1687 150.112 12.1682 150.612C12.1665 152.099 12.2644 153.61 12.1498 155.068C11.8931 158.341 11.8451 161.627 11.6162 164.901C11.4608 167.119 11.6269 169.475 12.2195 171.698C12.5265 172.849 12.7779 174.009 12.6482 175.172C12.2452 178.793 13.1763 182.267 13.8492 185.745C14.1851 187.478 14.0374 189.252 14.5895 190.954C15.5894 194.034 16.2445 197.209 17.2019 200.314C18.7884 205.456 20.6007 210.513 22.3109 215.609C22.7482 216.911 22.8878 218.316 23.1305 219.68C23.2593 220.403 22.9664 221.001 22.2461 221.176C20.632 221.569 20.9677 222.637 21.5889 223.463C22.865 225.163 22.7662 226.494 21.0835 227.835C20.2816 228.474 21.0492 231.024 22.0464 231.341C22.8293 231.59 22.6394 231.002 22.6521 230.609C22.6716 230.004 22.1731 229.209 22.9171 228.859C23.7395 228.472 24.4649 229.089 25.07 229.588C26.4432 230.721 26.7569 232.516 27.6636 233.95C28.4539 235.198 29.0897 236.543 29.9806 237.771C30.1093 236.479 29.4899 235.42 28.801 234.435C26.6523 231.364 25.2822 227.936 24.0654 224.43C23.94 224.069 23.7953 223.652 24.2282 223.442C24.7728 223.179 25.1398 223.542 25.4089 223.975C26.4215 225.603 27.5967 227.159 28.385 228.891C29.3246 230.956 30.8157 232.787 31.0811 235.164C31.2451 236.63 32.542 237.465 33.3228 238.584C35.7731 242.096 38.1541 245.652 40.5388 249.207C43.1317 253.072 45.7 257.03 49.3967 260.07C51.569 261.857 53.076 264.306 54.8983 266.443C55.1406 266.727 55.3028 267.135 55.6037 267.304C58.9364 269.174 60.7274 272.812 63.849 274.759C66.562 276.453 68.732 278.806 71.621 280.296C74.183 281.617 76.188 283.998 78.722 285.398C81.435 286.898 83.748 289.017 86.721 290.137C88.926 290.968 90.881 292.414 93.041 293.448C98.092 295.866 103.463 297.525 108.479 299.941C113.554 302.384 119.058 303.111 124.298 304.837C126.345 305.511 128.532 305.764 130.666 306.211C130.689 305.997 130.747 305.86 130.703 305.806C130.051 304.991 129.365 303.983 129.817 303.059C130.331 302.008 131.646 302.353 132.6 302.469C135.599 302.833 138.597 303.254 141.567 303.804C142.987 304.067 144.471 303.648 145.828 304.302C146.432 304.593 147.348 304.701 147.307 305.549C147.265 306.411 146.321 306.381 145.701 306.608C145.083 306.836 144.446 306.763 143.807 306.624C141.258 306.071 138.705 305.537 136.155 304.994C135.412 304.836 134.67 304.831 133.929 304.989C133.347 305.113 132.934 305.406 132.993 306.072C133.047 306.684 133.404 307.084 134.013 307.119C138.095 307.353 142.08 308.682 146.228 308.186C147.692 308.011 148.984 308.917 150.457 308.908C152.638 308.895 154.833 308.73 157.003 309.142C157.317 309.202 157.641 309.226 157.944 309.32C158.53 309.5 159.1 309.804 159.101 310.483C159.102 311.216 158.442 311.355 157.871 311.525C157.484 311.64 156.997 311.433 156.597 312.035" sodipodi:nodetypes="cccccccccccccccccccccccccccccccccccccccccccccccccccccccccccccccccccccccccccccccccccccccccccccccccccccccccccccccccccccccccccccccccccccccccccccccccccccccccccccccccccccccccccccccccccccccccccccccccccccccccccccccccccccccccccccccccccccccccccccccccccccccccccccccccccccccccccccccccccccccccccccccccccccccccccccccccccccccccccccccccccccccccccccccccccccccccccccccccccccccccccccccccccccccccccccccccccccccccccccccccccccccccccccccccccccccccccccccccccccccccccccccccccccccccccccccccccccccccccccccccccccccccccccccccccccccccccccccccccccccccccccccccccccccccccccccccccccccccccccccccccccccccccccc"/>
 </g>
</svg>
