<?xml version="1.0" standalone="no"?>
<!DOCTYPE svg PUBLIC "-//W3C//DTD SVG 20010904//EN" "http://www.w3.org/TR/2001/REC-SVG-20010904/DTD/svg10.dtd">
<!-- Created using Krita: https://krita.org -->
<svg xmlns="http://www.w3.org/2000/svg" 
    xmlns:xlink="http://www.w3.org/1999/xlink"
    xmlns:krita="http://krita.org/namespaces/svg/krita"
    xmlns:sodipodi="http://sodipodi.sourceforge.net/DTD/sodipodi-0.dtd"
    width="319.961pt"
    height="53.9933pt"
    viewBox="0 0 319.961 53.9933">
<defs/>
<path id="shape0" transform="matrix(0.901085884750854 -0.433640441471584 0.433640441471584 0.901085884750854 60.0564458796766 4.83646903713235)" fill="#80a08d" fill-rule="evenodd" stroke-opacity="0" stroke="#000000" stroke-width="0" stroke-linecap="square" stroke-linejoin="bevel" d="M12.4303 0L15.3191 6.98936L23.7665 8.77825L17.42 13.9787L18.0765 21.8833L10.8984 17.515L3.37019 20.8432L5.42731 13.1882L0 7.11413L8.22857 6.61492Z" sodipodi:nodetypes="ccccccccccc"/><path id="shape01" transform="matrix(0.901085884750854 -0.433640441471584 0.433640441471584 0.901085884750854 235.032247310069 8.1376476282452)" fill="#80a08d" fill-rule="evenodd" stroke-opacity="0" stroke="#000000" stroke-width="0" stroke-linecap="square" stroke-linejoin="bevel" d="M11.7023 0L14.4218 6.57997L22.3744 8.26408L16.3997 13.1599L17.0177 20.6015L10.2601 16.4891L3.17279 19.6224L5.10942 12.4158L0 6.69743L7.74659 6.22746Z" sodipodi:nodetypes="ccccccccccc"/><path id="shape02" transform="matrix(0.952971962533522 -0.303058320136447 0.303058320136447 0.952971962533522 132.37611140927 1.8496727724766)" fill="#f6b8ad" fill-rule="evenodd" stroke-opacity="0" stroke="#000000" stroke-width="0" stroke-linecap="square" stroke-linejoin="bevel" d="M8.3969 0L10.3483 4.55324L16.0546 5.71863L11.7675 9.10648L12.211 14.256L7.36207 11.4102L2.27662 13.5784L3.66625 8.59154L0 4.63454L5.55854 4.30932Z" sodipodi:nodetypes="ccccccccccc"/><path id="shape03" transform="matrix(0.985753135646766 -0.168198492621968 0.168198492621968 0.985753135646766 5.72143272561644 41.1724910514763)" fill="#114837" fill-rule="evenodd" stroke-opacity="0" stroke="#000000" stroke-width="0" stroke-linecap="square" stroke-linejoin="bevel" d="M8.54944 0L10.5363 4.63595L16.3463 5.82252L11.9812 9.27191L12.4328 14.5149L7.49581 11.6175L2.31798 13.8251L3.73285 8.74762L0 4.71873L5.65951 4.3876Z" sodipodi:nodetypes="ccccccccccc"/><path id="shape04" transform="matrix(0.988687176922374 -0.149991876935321 0.149991876935321 0.988687176922374 28.3024511052251 17.6232411481914)" fill="#f6d500" fill-rule="evenodd" stroke-opacity="0" stroke="#000000" stroke-width="0" stroke-linecap="square" stroke-linejoin="bevel" d="M8.83872 0L10.8928 4.79283L16.8994 6.01955L12.3867 9.58567L12.8535 15.0061L7.74946 12.0106L2.39641 14.2929L3.85917 9.04362L0 4.87841L5.85103 4.53607Z" sodipodi:nodetypes="ccccccccccc"/><path id="shape05" transform="matrix(0.969918600740434 0.243428928936142 -0.243428928936142 0.969918600740434 282.28704702706 24.0078926812896)" fill="#c9cfda" fill-rule="evenodd" stroke-opacity="0" stroke="#000000" stroke-width="0" stroke-linecap="square" stroke-linejoin="bevel" d="M11.2781 0L13.899 6.52643L21.5633 8.19683L15.8052 13.0528L16.4008 20.4338L9.88816 16.3549L3.05778 19.4627L4.92419 12.3147L0 6.64293L7.46577 6.17677Z" sodipodi:nodetypes="ccccccccccc"/>
</svg>
