<?xml version="1.0" standalone="no"?>
<!DOCTYPE svg PUBLIC "-//W3C//DTD SVG 20010904//EN" "http://www.w3.org/TR/2001/REC-SVG-20010904/DTD/svg10.dtd">
<!-- Created using Krita: https://krita.org -->
<svg xmlns="http://www.w3.org/2000/svg" 
    xmlns:xlink="http://www.w3.org/1999/xlink"
    xmlns:krita="http://krita.org/namespaces/svg/krita"
    xmlns:sodipodi="http://sodipodi.sourceforge.net/DTD/sodipodi-0.dtd"
    width="904.888pt"
    height="118.985pt"
    viewBox="0 0 904.888 118.985">
<defs/>
<path id="shape0" transform="matrix(0.999999997876004 0 0 0.999999997876004 0.749914276813691 28.5218720359702)" fill="#fe8b00" fill-rule="evenodd" stroke-opacity="0" stroke="#000000" stroke-width="0" stroke-linecap="square" stroke-linejoin="bevel" d="M25.0992 0L30.9321 14.8474L47.989 18.6476L35.1742 29.6948L36.4999 46.4865L22.006 37.2069L6.80506 44.2771L10.9588 28.0157L0 15.1125L16.615 14.052Z" sodipodi:nodetypes="ccccccccccc"/><path id="shape01" transform="matrix(0.9953321797991 -0.0965082824675849 0.0965082824675849 0.9953321797991 67.770847631933 92.5421810754693)" fill="#114837" fill-rule="evenodd" stroke-opacity="0" stroke="#000000" stroke-width="0" stroke-linecap="square" stroke-linejoin="bevel" d="M16.0914 0L19.8309 8.7256L30.7663 10.9589L22.5506 17.4512L23.4005 27.3194L14.1083 21.866L4.3628 26.021L7.02581 16.4644L0 8.8814L10.6521 8.25816Z" sodipodi:nodetypes="ccccccccccc"/><path id="shape02" transform="matrix(0.995332170158941 -0.0965082815328666 0.0965082815328666 0.995332170158941 134.246151358677 55.9279745850505)" fill="#f6b8ad" fill-rule="evenodd" stroke-opacity="0" stroke="#000000" stroke-width="0" stroke-linecap="square" stroke-linejoin="bevel" d="M16.0914 0L19.8309 8.7256L30.7663 10.9589L22.5506 17.4512L23.4005 27.3194L14.1083 21.866L4.3628 26.021L7.02581 16.4644L0 8.8814L10.6521 8.25816Z" sodipodi:nodetypes="ccccccccccc"/><path id="shape03" transform="matrix(0.901085924134758 -0.433640460424776 0.433640460424776 0.901085924134758 230.073435797378 45.5887142782729)" fill="#80a08d" fill-rule="evenodd" stroke-opacity="0" stroke="#000000" stroke-width="0" stroke-linecap="square" stroke-linejoin="bevel" d="M24.0881 0L29.686 13.5443L46.0558 17.0109L33.7573 27.0885L35.0295 42.4064L21.1195 33.9414L6.53092 40.391L10.5173 25.5568L0 13.7861L15.9457 12.8187Z" sodipodi:nodetypes="ccccccccccc"/><path id="shape04" transform="matrix(0.96273972761975 -0.270429488876216 0.270429488876216 0.96273972761975 348.788790191654 5.05959483444639)" fill="#f6b8ad" fill-rule="evenodd" stroke-opacity="0" stroke="#000000" stroke-width="0" stroke-linecap="square" stroke-linejoin="bevel" d="M16.0914 0L19.8309 8.7256L30.7663 10.9589L22.5506 17.4512L23.4005 27.3194L14.1083 21.866L4.3628 26.021L7.02581 16.4644L0 8.8814L10.6521 8.25816Z" sodipodi:nodetypes="ccccccccccc"/><path id="shape05" transform="matrix(0.951927811066693 -0.306322271650259 0.306322271650259 0.951927811066693 710.213141252399 39.7127509068548)" fill="#f6b8ad" fill-rule="evenodd" stroke-opacity="0" stroke="#000000" stroke-width="0" stroke-linecap="square" stroke-linejoin="bevel" d="M12.1223 0L14.9395 6.57337L23.1776 8.25581L16.9883 13.1467L17.6286 20.5809L10.6284 16.4726L3.28669 19.6027L5.29285 12.4033L0 6.69074L8.02469 6.22123Z" sodipodi:nodetypes="ccccccccccc"/><path id="shape06" transform="matrix(0.901085884682942 -0.433640441438902 0.433640441438902 0.901085884682942 616.965172769602 70.1201565479343)" fill="#80a08d" fill-rule="evenodd" stroke-opacity="0" stroke="#000000" stroke-width="0" stroke-linecap="square" stroke-linejoin="bevel" d="M18.6086 0L22.9331 10.4633L35.5791 13.1413L26.0782 20.9264L27.061 32.7598L16.3153 26.2204L5.04527 31.2029L8.12483 19.7432L0 10.6501L12.3184 9.90271Z" sodipodi:nodetypes="ccccccccccc"/><path id="shape07" transform="matrix(0.901085884682942 -0.433640441438902 0.433640441438902 0.901085884682942 746.374532731248 69.9808930857448)" fill="#c9cfda" fill-rule="evenodd" stroke-opacity="0" stroke="#000000" stroke-width="0" stroke-linecap="square" stroke-linejoin="bevel" d="M26.5425 0L32.7108 14.9244L50.7485 18.7442L37.1969 29.8486L38.5987 46.7273L23.2714 37.3998L7.19637 44.5065L11.5889 28.1608L0 15.1908L17.5704 14.1248Z" sodipodi:nodetypes="ccccccccccc"/><path id="shape08" transform="matrix(0.995332127475845 -0.0965082773942764 0.0965082773942764 0.995332127475845 563.673853244817 12.0583779541455)" fill="#f6d500" fill-rule="evenodd" stroke-opacity="0" stroke="#000000" stroke-width="0" stroke-linecap="square" stroke-linejoin="bevel" d="M14.4031 0L17.7503 7.81014L27.5384 9.80913L20.1847 15.6203L20.9454 24.4531L12.6281 19.5719L3.90507 23.291L6.28869 14.737L0 7.9496L9.53452 7.39174Z" sodipodi:nodetypes="ccccccccccc"/><path id="shape09" transform="matrix(0.94592517797682 -0.324384732419451 0.324384732419451 0.94592517797682 857.367352097598 62.4634257457601)" fill="#f6d500" fill-rule="evenodd" stroke-opacity="0" stroke="#000000" stroke-width="0" stroke-linecap="square" stroke-linejoin="bevel" d="M14.4031 0L17.7503 7.81014L27.5384 9.80913L20.1847 15.6203L20.9454 24.4531L12.6281 19.5719L3.90507 23.291L6.28869 14.737L0 7.9496L9.53452 7.39174Z" sodipodi:nodetypes="ccccccccccc"/>
</svg>
