<svg xmlns="http://www.w3.org/2000/svg" width="64" height="64"><path style="fill:none;stroke-width:12;stroke-linecap:square;stroke-linejoin:bevel;stroke:#000;stroke-opacity:1;stroke-miterlimit:4" d="M92.004 45.997c0 25.402-20.593 46.008-46.008 46.008C20.593 92.005 0 71.399 0 45.997 0 20.594 20.593 0 45.996 0 71.41 0 92.004 20.594 92.004 45.997Zm0 0" transform="matrix(.32 0 0 .32 11.84 12.16)"/><path style="fill:none;stroke-width:8;stroke-linecap:round;stroke-linejoin:bevel;stroke:#000;stroke-opacity:1;stroke-miterlimit:4" d="M-.005-.002C21.186 1.414 29.523 11.582 32 30.76" transform="matrix(.32 0 0 .32 26.248 17.876)"/><path style="fill:none;stroke-width:10;stroke-linecap:square;stroke-linejoin:bevel;stroke:#000;stroke-opacity:1;stroke-miterlimit:4" d="M.005.127C9.685 8.245 15.74 19.537 24.75 30.5c7.251 3.71 8.79 2.49 7.373-3.248C24.175 18.61 10.674 11.065.127.005" transform="matrix(.32 0 0 .32 40.76 40.76)"/></svg>