<svg xmlns="http://www.w3.org/2000/svg" width="64" height="64"><path style="stroke:none;fill-rule:nonzero;fill:#000;fill-opacity:1" d="M46.355 0H17.668C7.926 0 0 7.926 0 17.668v28.687c0 9.743 7.926 17.668 17.668 17.668h28.687c9.743 0 17.668-7.925 17.668-17.668V17.668C64.023 7.926 56.098 0 46.355 0Zm11.989 46.355c0 6.61-5.38 11.989-11.989 11.989H17.668c-6.61 0-11.988-5.38-11.988-11.989V17.668c0-6.61 5.379-11.988 11.988-11.988h28.687c6.61 0 11.989 5.379 11.989 11.988Zm0 0"/><path style="stroke:none;fill-rule:nonzero;fill:#000;fill-opacity:1" d="M32.012 15.516c-9.098 0-16.496 7.398-16.496 16.496 0 9.097 7.398 16.496 16.496 16.496 9.097 0 16.496-7.399 16.496-16.496 0-9.098-7.399-16.496-16.496-16.496Zm0 27.312c-5.965 0-10.817-4.851-10.817-10.816 0-5.965 4.852-10.817 10.817-10.817s10.816 4.852 10.816 10.817-4.851 10.816-10.816 10.816ZM49.2 10.7a4.177 4.177 0 0 0-2.942 1.218 4.183 4.183 0 0 0-1.223 2.945c0 1.098.445 2.172 1.223 2.95a4.21 4.21 0 0 0 2.941 1.218c1.102 0 2.172-.449 2.95-1.218a4.219 4.219 0 0 0 1.218-2.95 4.196 4.196 0 0 0-1.219-2.945 4.181 4.181 0 0 0-2.949-1.219Zm0 0"/></svg>