<svg xmlns="http://www.w3.org/2000/svg" width="64" height="75" viewBox="0 0 64 74"><path style="fill:none;stroke-width:40;stroke-linecap:square;stroke-linejoin:bevel;stroke:#000;stroke-opacity:1;stroke-miterlimit:4" d="M38.543.73 365.09-.013l40.739 325.845-405.816.71Zm0 0" transform="matrix(.11679 0 0 .11563 8.409 24.302)"/><path style="fill:none;stroke-width:40;stroke-linecap:square;stroke-linejoin:bevel;stroke:#000;stroke-opacity:1;stroke-miterlimit:4" d="M2.53 191.074C2.9 160.364-10.078 57.797 19.49 24.926c35.153-36.858 82.414-29.831 113.152 1.419 27.594 30.81 17.794 96.148 18.396 161.216" transform="matrix(.11679 0 0 .11563 23.076 9.138)"/><path style="stroke:none;fill-rule:evenodd;fill:#000;fill-opacity:1" d="M26.629 31.219c0-1.723-1.492-3.121-3.328-3.121-1.84 0-3.328 1.398-3.328 3.12 0 1.723 1.488 3.122 3.328 3.122 1.836 0 3.328-1.399 3.328-3.121ZM44.227 31.266c0-1.727-1.489-3.121-3.329-3.121-1.836 0-3.328 1.394-3.328 3.12 0 1.723 1.492 3.122 3.328 3.122 1.84 0 3.329-1.399 3.329-3.121Zm0 0"/></svg>